<svg xmlns="http://www.w3.org/2000/svg" width="28" height="28" viewBox="0 0 28 28">
 <g transform="matrix(1.2,0,0,1.2,2,2)">
  <path d="M 20,10 C 20,15.522017 15.522017,20 10,20 4.4779827,20 -1e-8,15.522017 -1e-8,10 -1e-8,4.4779827 4.4779827,-1e-8 10,-1e-8 15.522017,-1e-8 20,4.4779827 20,10 z" fill="#555555" fill-rule="evenodd"/>
  <g transform="translate(-1,0)" fill="#ffffff" fill-opacity="0.902">
   <path d="m 13,16 -4,0 0,-6 4,0 0,6"/>
   <path d="M 13,6 C 13,7.102272 12.102272,8 11,8 9.897728,8 9,7.102272 9,6 9,4.897728 9.897728,4 11,4 c 1.102272,0 2,0.897728 2,2 z" fill-rule="evenodd"/>
  </g>
 </g>
</svg>
