<svg xmlns="http://www.w3.org/2000/svg" width="24" height="24">
 <g transform="translate(0,-1028.3622)">
  <g transform="translate(3.0714285,0.6785875)">
   <path d="m 6.9075371,1029.4586 c -4.4182781,0 -8.0000001,3.5819 -8.0000001,8.0004 0,4.4184 3.581722,8.0003 8.0000001,8.0003 1.681874,0 3.2432389,-0.5196 4.5312499,-1.4063 l 4.875,4.8752 c 0.707107,0.7072 0.699144,0.7072 1.40625,0 l 0.34375,-0.375 c 0.707107,-0.7071 0.707107,-0.6991 0,-1.4063 l -4.8125,-4.8127 c 1.039684,-1.3501 1.65625,-3.0394 1.65625,-4.8752 0,-4.4185 -3.581722,-8.0004 -7.9999999,-8.0004 z m 0,2.0001 c 3.3137079,0 5.9999999,2.6864 5.9999999,6.0003 0,3.3138 -2.686292,6.0002 -5.9999999,6.0002 -3.3137086,0 -6.0000001,-2.6864 -6.0000001,-6.0002 0,-3.3139 2.6862915,-6.0003 6.0000001,-6.0003 z" fill="#888"/>
   <path d="m 14.688327,1043.1473 -2.4375,2.4375 3.5625,3.5937 c 0.973373,0.9735 0.964129,0.9735 1.9375,0 l 0.46875,-0.5312 c 0.973372,-0.9734 0.973372,-0.9641 0,-1.9375 l -3.53125,-3.5625 z" fill="#888"/>
  </g>
 </g>
</svg>
