<svg xmlns="http://www.w3.org/2000/svg" width="64" height="64">
 <path d="m 0,0 64,0 0,0 0,64.00002 c -21.333333,0 -42.666667,0 -64,0 z" opacity="0.3" fill="#888888"/>
 <path d="m 31.999355,9.00002 c -3.002957,0 -5.740595,0.63875 -8.449262,1.6405 -2.533625,1.2635 -4.075727,3.3005 -5.60724,6.171 -2.177277,7.7785 -2.195545,18.5908 1.689853,23.903 1.633054,2.5198 3.897289,5.8113 2.150722,8.827 -3.22863,4.7048 -14.02716,5.495 -17.5188225,9.8423 -0.640392,0.7975 -1.170522,1.7907 -1.228985,2.8122 -0.03595,0.628 -0.1806,1.7605 0.553393,1.804 l 56.9900175,0 c 0.490075,-0.21 0.445618,-1.1872 0.384058,-1.7967 -0.10285,-1.018 -0.588593,-2.0148 -1.228985,-2.812 -3.491665,-4.3475 -14.290192,-5.1378 -17.518822,-9.8425 -1.746568,-3.0158 0.517667,-6.307 2.150722,-8.827 3.885398,-5.312 3.86713,-16.1243 1.689853,-23.903 -1.531513,-2.8705 -3.073613,-4.9073 -5.607238,-6.17105 C 37.710012,9.40752 34.900117,9.18502 31.999355,9.00752 z" opacity="0.3" fill="#888888"/>
</svg>
