<svg width="120" height="28" xmlns="http://www.w3.org/2000/svg" fill-rule="evenodd" clip-rule="evenodd" stroke-linejoin="round" stroke-miterlimit="1.414"><path d="M33.78 18.264c0 1.232-.424 2.162-1.27 2.792-.845.63-2.06.944-3.642.944-.86 0-1.606-.047-2.24-.142-.635-.088-1.283-.254-1.945-.498v-3.177c.62.27 1.3.494 2.037.67.743.176 1.405.264 1.984.264.867 0 1.3-.197 1.3-.59 0-.202-.123-.382-.37-.537-.237-.162-.94-.474-2.106-.934-1.064-.433-1.808-.924-2.23-1.472-.423-.555-.635-1.256-.635-2.102 0-1.07.416-1.902 1.248-2.497.833-.596 2.01-.893 3.53-.893.765 0 1.48.083 2.15.253.675.163 1.374.403 2.097.72l-1.084 2.56c-.532-.237-1.095-.437-1.69-.6-.592-.17-1.076-.253-1.45-.253-.656 0-.984.16-.984.477 0 .195.112.364.337.506.232.136.893.417 1.985.843.812.33 1.415.656 1.81.974.403.318.697.693.88 1.127.192.427.287.948.287 1.564" fill="#fff"/><path d="M40.632 22c-1.896 0-3.336-.508-4.318-1.523-.975-1.015-1.463-2.474-1.463-4.375 0-1.91.53-3.388 1.587-4.437 1.057-1.05 2.56-1.573 4.512-1.573 1.343 0 2.608.29 3.795.872l-1.177 2.934c-.484-.21-.93-.375-1.34-.497-.41-.128-.836-.192-1.28-.192-.647 0-1.148.25-1.503.752-.355.5-.532 1.208-.532 2.12 0 1.842.686 2.763 2.056 2.763 1.173 0 2.298-.34 3.376-1.015v3.157c-1.03.677-2.268 1.015-3.714 1.015" fill="#fff"/><path d="M52.998 10.091c.348.002.68.028.993.082l.226.04-.358 3.748c-.328-.08-.78-.122-1.36-.122-.874 0-1.51.2-1.904.6-.396.39-.594.96-.594 1.704v5.655h-4V10.295h2.977l.624 1.837h.196c.334-.61.798-1.1 1.39-1.472.6-.38 1.205-.568 1.812-.568" fill="#fff"/><path d="M66.328 16.02c0 1.882-.512 3.35-1.535 4.406C63.777 21.476 62.35 22 60.516 22c-1.76 0-3.16-.538-4.205-1.614-1.036-1.076-1.554-2.53-1.554-4.366 0-1.874.508-3.33 1.525-4.365 1.024-1.042 2.456-1.563 4.298-1.563 1.14 0 2.145.24 3.018.72.873.48 1.545 1.17 2.016 2.07.477.895.716 1.94.716 3.138m-7.51 0c0 .99.133 1.743.4 2.264.265.515.712.772 1.34.772.62 0 1.056-.257 1.31-.772.258-.52.388-1.275.388-2.264 0-.98-.13-1.722-.39-2.223-.258-.5-.702-.75-1.33-.75-.613 0-1.053.25-1.32.75-.265.494-.398 1.235-.398 2.223" fill="#fff"/><path d="M72 21.797h-4V6h4" fill="#fff"/><path d="M78 21.797h-4V6h4" fill="#fff"/><path d="M84.637 10.548c1.535 0 2.69.488 3.465 1.462.78.968 1.17 2.386 1.17 4.254 0 1.834-.41 3.25-1.23 4.244-.816.995-1.964 1.492-3.446 1.492-.78 0-1.485-.162-2.11-.487-.627-.325-1.122-.785-1.486-1.38h-.09l-.284 1.664H80V6h1v3.97c0 .595-.013 1.143-.04 1.644l-.03.863H81c.418-.663.92-1.15 1.505-1.462.593-.31 1.303-.467 2.132-.467m-.02.914c-1.294 0-2.22.372-2.78 1.117-.557.743-.837 1.972-.837 3.684v.173c0 1.665.29 2.86.87 3.583.585.724 1.494 1.087 2.726 1.087 1.2 0 2.1-.42 2.707-1.26.607-.845.91-2.047.91-3.603 0-3.188-1.2-4.782-3.596-4.782" fill="#fff"/><path d="M98.263 21.797l-.253-1.746h-.08c-.553.71-1.122 1.216-1.708 1.514-.58.29-1.266.436-2.06.436-1.078 0-1.917-.277-2.516-.832-.6-.555-.9-1.324-.9-2.305 0-1.076.446-1.912 1.334-2.508.896-.595 2.19-.91 3.88-.944l2.09-.06v-.73c0-1.05-.212-1.842-.636-2.376-.424-.535-1.108-.803-2.05-.803-1.017.002-2.07.286-3.162.854l-.374-.873c1.205-.567 2.397-.85 3.576-.85 1.205-.002 2.104.313 2.697.943.6.63.9 1.61.9 2.944v7.34m-4.778-.71c1.172 0 2.094-.336 2.768-1.006.68-.676 1.02-1.613 1.02-2.81v-1.087l-1.92.08c-1.54.076-2.642.32-3.303.73-.653.408-.98 1.044-.98 1.91 0 .69.21 1.23.627 1.614.424.38 1.02.57 1.788.57" fill="#fff"/><path d="M105.57 22c-1.57 0-2.798-.497-3.687-1.492-.89-.995-1.333-2.383-1.333-4.163 0-1.827.46-3.248 1.384-4.264.923-1.02 2.185-1.532 3.788-1.532.95 0 1.86.166 2.727.498l-.273.893c-.95-.32-1.775-.478-2.475-.478-1.347 0-2.367.42-3.06 1.26-.695.83-1.04 2.033-1.04 3.603 0 1.49.345 2.656 1.04 3.503.693.84 1.662 1.258 2.908 1.258.997 0 1.923-.18 2.778-.538v.934c-.7.345-1.62.518-2.757.518" fill="#fff"/><path d="M110.98 16.954l5.606-6.193 1.212.002-4.323 4.71 4.697 6.325h-1.202l-4.172-5.574L111 17.868v3.93h-1V6h1v7.92l-.07 3.034" fill="#fff"/><path d="M10 0L0 10h5.665L10 5.634 14.335 10H20z" fill="#3ca"/><path fill="#fff" d="M0 12h20v4H0z"/><path d="M10 28L0 18h5.665L10 22.366 14.335 18H20z" fill="#fff"/></svg>