<svg xmlns="http://www.w3.org/2000/svg" width="28" height="28">
 <path d="M 13.9375 1 C 13.049953 1.1377283 11.999698 3.7086506 9.4375 9.1875 C -1.5906469 10.902776 -2.6770607 8.9396479 6.75 17.75 C 4.9734394 28.768442 2.7702338 29.21187 14.0625 22.96875 C 23.992675 28.063247 23.729306 30.262561 21.28125 17.59375 C 29.194997 9.7238778 31.242748 10.680389 18.4375 9.09375 C 15.76042 3.8033781 14.943387 0.84390789 13.9375 1 z M 13.9375 3 C 14.788635 2.8679222 15.484778 5.3672811 17.75 9.84375 C 28.58521 11.186291 26.883747 10.403377 20.1875 17.0625 C 22.258932 27.782263 22.464956 25.904479 14.0625 21.59375 C 4.5075062 26.87639 6.3717564 26.479548 7.875 17.15625 C -0.10174379 9.7013373 0.82474051 11.357638 10.15625 9.90625 C 12.324263 5.2703007 13.186499 3.1165392 13.9375 3 z " fill="#555555"/>
</svg>
