<svg xmlns="http://www.w3.org/2000/svg" width="24" height="24">
 <g transform="translate(0,-1028.3622)">
  <path d="m 15.369957,1029.3622 c -1.287767,0.2239 -2.527227,0.8174 -3.52316,1.8129 -2.1179487,2.1171 -2.5072377,5.3111 -1.146592,7.8143 l -6.8586972,6.8558 c -0.667108,-0.6668 -1.959313,0.605 -1.959313,0.605 0,0 -1.35121898,1.3136 -0.709116,2.0623 l 2.668429,2.6673 c 0.667108,0.6668 2.063126,-0.7088 2.063126,-0.7088 0,0 1.2363055,-1.2313 0.6053035,-1.9585 l 6.8586987,-6.8558 c 2.504354,1.3601 5.699717,0.971 7.817665,-1.1461 0.995935,-0.9955 1.58975,-2.2344 1.813698,-3.5216 l -1.813698,-1.813 -2.66843,2.6673 c -1.1053,1.1049 -2.897345,1.1049 -4.002645,0 -1.1053,-1.1048 -1.1053,-2.8961 0,-4.0009 l 2.66843,-2.6673 z" fill="#888"/>
 </g>
</svg>
