<svg xmlns="http://www.w3.org/2000/svg" width="28" height="28" viewBox="0 0 28 28">
 <path d="M 14 2 C 7.3735792 2 2 7.3735792 2 14 C 2 20.62642 7.3735792 26 14 26 C 20.62642 26 26 20.62642 26 14 C 26 7.3735792 20.62642 2 14 2 z M 14 6.8125 C 15.322726 6.8125 16.40625 7.8647736 16.40625 9.1875 C 16.40625 10.510226 15.322726 11.59375 14 11.59375 C 12.677274 11.59375 11.59375 10.510226 11.59375 9.1875 C 11.59375 7.8647736 12.677274 6.8125 14 6.8125 z M 11.59375 14 L 16.40625 14 L 16.40625 21.1875 L 11.59375 21.1875 L 11.59375 14 z " fill="#555" fill-rule="evenodd"/>
</svg>
