<svg xmlns="http://www.w3.org/2000/svg" width="28" height="28">
 <g transform="translate(0,-1024.3622)">
  <path d="m 10.984624,1025.3631 c -0.09656,-0.01 -0.143158,0.04 -0.24388,0.081 l -3.4975854,1.3828 c -0.403938,0.1674 -0.574006,0.7345 -0.406696,1.1387 l 0.732058,2.0335 c -0.804914,0.6047 -1.362985,1.2473 -1.952145,2.0335 l -2.03347,-0.8947 c -0.403938,-0.1674 -0.971416,0.084 -1.138754,0.488 l -1.382763,3.3349 c -0.16736602,0.4042 0.08404,0.89 0.488038,1.0574 l 2.033479,0.8947 c -0.138998,0.9728 -0.141858,1.9312 0,2.9282 l -2.033479,0.8948 c -0.403938,0.1673 -0.57400502,0.4905 -0.406695,0.8947 l 1.30142,3.4976 c 0.167366,0.4042 0.734816,0.5741 1.138754,0.4067 l 2.03347,-0.8134 c 0.604333,0.8053 1.329046,1.444 2.114821,2.0335 l -0.894734,2.0334 c -0.167366,0.4042 0.0028,0.9714 0.406696,1.1388 l 3.4975854,1.3828 c 0.403957,0.1673 0.727415,-0.084 0.894725,-0.4881 l 0.894735,-2.0335 c 0.972214,0.139 1.931726,0.1419 2.928204,0 l 0.813391,2.0335 c 0.167366,0.4042 0.734807,0.5741 1.138745,0.4067 l 3.334899,-1.3014 c 0.403966,-0.1674 0.655377,-0.7346 0.488039,-1.1388 l -0.894734,-2.0334 c 0.804932,-0.6047 1.444355,-1.2473 2.033478,-2.0335 l 2.114822,0.8134 c 0.403957,0.1673 0.808758,0 0.976068,-0.4067 l 1.464097,-3.4976 c 0.167366,-0.4042 -0.0028,-0.7273 -0.406695,-0.8947 l -2.114813,-0.8948 c 0.138989,-0.9727 0.141858,-1.9311 0,-2.9282 l 2.033479,-0.8947 c 0.403966,-0.1674 0.655367,-0.4905 0.488029,-0.8947 l -1.464097,-3.4976 c -0.167366,-0.4042 -0.653445,-0.6555 -1.057411,-0.488 l -2.033479,0.8947 c -0.604305,-0.8054 -1.247675,-1.444 -2.033478,-2.0335 l 0.894734,-2.1961 c 0.167366,-0.4042 -0.08404,-0.8087 -0.488039,-0.9761 l -3.334899,-1.3828 c -0.403938,-0.1673 -0.971407,0.084 -1.138745,0.4881 l -0.813391,2.0334 c -0.972196,-0.139 -1.931708,-0.1418 -2.928204,0 l -0.894735,-2.0334 c -0.125459,-0.3032 -0.361223,-0.5517 -0.650715,-0.5694 z m 3.009547,7.8086 c 2.875034,0 5.205702,2.3306 5.205702,5.2057 0,2.875 -2.330668,5.2057 -5.205702,5.2057 -2.875006,0 -5.2057024,-2.3307 -5.2057024,-5.2057 0,-2.8751 2.3306964,-5.2057 5.2057024,-5.2057 z" fill="#888"/>
 </g>
</svg>
