<svg xmlns="http://www.w3.org/2000/svg" width="24" height="24">
 <g transform="matrix(0.00358049,0,0,0.00358049,0.00714874,2.252116)" fill="#888888" fill-rule="evenodd">
  <path d="M 6701,645 C 6454,754 6189,828 5911,861 6195,691 6413,421 6515,100 6249,258 5955,372 5642,434 5391,167 5034,0 4638,0 3879,0 3263,616 3263,1375 c 0,108 12,213 36,313 C 2156,1631 1143,1083 465,251 347,454 279,690 279,942 c 0,477 243,898 612,1144 -225,-7 -437,-69 -623,-172 0,6 0,11 0,17 0,666 474,1222 1103,1348 -115,31 -237,48 -362,48 -89,0 -175,-9 -259,-25 175,546 683,944 1284,955 -471,369 -1063,589 -1708,589 -111,0 -220,-7 -328,-19 608,390 1331,618 2108,618 2529,0 3912,-2095 3912,-3912 0,-60 -1,-119 -4,-178 269,-194 502,-436 686,-712 z"/>
 </g>
</svg>
