<svg xmlns="http://www.w3.org/2000/svg" width="36" height="36">
 <path d="M 0,5.000409 0,32.015034 C 0,36 0,36 3.9849662,36 13.353132,36 22.721298,36 32.089465,36 36,36 36,35.952509 36,31.988817 L 36,4.9895951 C 36,1.000409 36.030886,1.000409 32.037031,1.000409 L 4,1.000409 c -4,0 -4,-0.0147696 -4,4 z" fill="#2bad90"/>
 <path d="m 0,4 0,27.014625 c 0,3.984966 0,3.984966 3.9849662,3.984966 9.3681658,0 18.7363318,0 28.1044988,0 C 36,34.999591 36,34.9521 36,30.988408 L 36,3.9891861 C 36,0 36.030886,0 32.037031,0 L 4,0 C 0,0 0,-0.01476961 0,4 z" fill="#33ccaa"/>
 <g transform="matrix(2,0,0,2,-2.9999996,-3.0000003)">
  <path d="m 10.500017,3.5000003 -5.0000189,4.9999964 2.832371,0 2.1676019,-2.1831986 2.167651,2.1831986 2.832381,0 z" fill="#ffffff"/>
  <path d="m 5.4999966,9.4998958 0,1.9999982 9.9999924,0 0,-1.9999982 z" fill="#ffffff"/>
  <path d="m 10.500016,17.5 -5.0000194,-5.000006 2.8323709,0 2.1676025,2.183208 2.167651,-2.183208 2.832381,0 z" fill="#ffffff"/>
 </g>
</svg>
