<svg xmlns="http://www.w3.org/2000/svg" width="24" height="24">
 <g transform="translate(0,-1028.3622)">
  <g transform="translate(-13.08021,828.86203)">
   <path d="m 17,210 17.029514,0 C 36,210 35,208 34,206 l -3,-5 c -1,-1 -1,0 -1,1.02218 0,0.99261 0,2.98521 0,3.97782 l -13,0 c -2.015625,0 -2,-0.011 -2,2 0,2 0,2 2,2 z" fill="#888"/>
   <path d="m 33.160423,213.00034 -17.029514,0 c -1.970486,0 -0.970486,2 0.02951,4 l 3,5 c 1,1 1,0 1,-1.02218 0,-0.99261 0,-2.98521 0,-3.97782 l 13,0 c 2.015625,0 2,0.011 2,-2 0,-2 0,-2 -2,-2 z" fill="#888"/>
  </g>
 </g>
</svg>
