<svg xmlns="http://www.w3.org/2000/svg" width="24" height="24">
 <g transform="translate(0,-1028.3622)">
  <g transform="matrix(0.99194167,0,0,1.0117423,-14.894024,585.52193)">
   <path d="m 15.015206,458.17979 8.049662,-6.07041 -2.889763,-3.11087 c -0.965131,-1.30769 -0.4633,-2.42469 0.360241,-3.10581 l 7.823644,-6.47059 1.010161,0.91946 -3.886056,4.61791 6.13153,-4.72013 c 1.565779,0.64451 1.890394,1.40841 2.663744,2.7107 0.499566,0.91975 1.346628,1.22639 2.020323,1.83891 l -2.560684,2.81979 2.470624,-2.04334 0.643421,0.87179 -7.862173,10.01228 c -0.823542,0.68112 -1.898378,0.31926 -2.567185,-0.33367 l -2.349703,-3.01804 -5.33885,8.32395 c -2.643865,0.029 -3.73552,-1.56389 -3.718936,-3.24193 z" fill="#888"/>
   <path d="m 34.209991,440.87179 c 0.370271,-1.18192 3.989449,-1.49645 4.742612,0.10592 1.242696,3.03991 -2.393508,3.67113 -2.855679,1.98763 -1.177618,-2.24789 -1.276388,-1.99745 -1.886933,-2.09349 z" fill="#888"/>
   <path d="m 38.201778,447.96927 c 0.650143,1.00752 1.353133,4.83097 -0.538132,5.67345 -3.655249,1.4496 -4.811825,-2.36501 -2.787552,-2.90412 2.427942,-0.54678 2.165275,-1.84839 3.325684,-2.76933 z" fill="#888"/>
   <path d="m 26.120529,438.324 c -2.464262,-0.20395 -2.191367,1.92327 -3.518294,2.97144 -3.00593,1.6098 -3.043467,-2.05616 -1.378787,-2.65486 0.98637,-0.52836 2.956406,-1.6381 4.897081,-0.31658 z" fill="#888"/>
  </g>
 </g>
</svg>
