<svg xmlns="http://www.w3.org/2000/svg" width="24" height="24">
 <g transform="scale(0.99774261,1.0022625)" fill="#888888">
  <path d="m 16.354845,14.153708 c 0,-2.478349 0,-4.9566982 0,-7.4350473 -0.391715,0 -0.783429,0 -1.175144,0 C 14.71584,7.6944179 13.501837,6.298418 12.665525,6.6075797 10.378866,6.4075539 7.9797057,7.8257174 7.3269484,10.080821 c -0.5981257,1.868546 -0.4955073,4.066762 0.5803222,5.742807 1.2783575,1.798506 3.9455504,2.421687 5.8804134,1.390954 0.533618,-0.429804 1.266854,-1.27625 1.684347,-0.264197 1.305278,1.221822 3.502074,0.861214 4.647803,-0.406913 1.764893,-1.739174 2.054095,-4.399412 1.879805,-6.7499056 C 21.746013,7.0900924 20.226984,4.4769643 17.796521,3.1865273 15.55865,1.9905522 12.904522,1.8240885 10.42843,2.1388462 7.0974042,2.6756595 3.9320016,4.8633387 2.7555192,8.1036621 1.3891898,11.609596 1.8500634,15.895303 4.2465756,18.850253 c 1.9776871,2.363384 5.2112421,3.400904 8.2255524,3.041298 0.996688,-0.09876 1.979334,-0.317302 2.933562,-0.61918 0,-0.50471 0,-1.009419 0,-1.514129 C 12.432855,20.81774 8.7750448,20.580442 6.3822092,18.35321 4.1500452,16.275877 3.5891108,12.928653 4.1433255,10.035841 4.7199544,7.1691842 6.9035745,4.6096134 9.7890225,3.9047105 12.211126,3.2374631 14.966098,3.4001238 17.140305,4.72794 c 2.256508,1.4977135 3.244098,4.3609028 3.015158,6.98349 -0.05715,1.542364 -0.283443,3.382613 -1.656437,4.328964 -1.318653,0.619471 -2.358367,-0.590346 -2.144181,-1.886686 z M 8.9649952,12.2102 C 8.8706892,10.42063 9.933892,8.3207123 11.867525,8.081677 c 0.952302,-0.021382 3.056692,-0.2936398 2.750212,1.1482818 0.002,1.9048912 -0.02593,3.8101102 0.01959,5.7147122 C 13.378857,16.730082 10.136493,16.52621 9.3488657,14.39381 9.0552981,13.706903 8.9690545,12.95125 8.9649952,12.2102 z"/>
 </g>
</svg>
