<svg width="28" height="28" xmlns="http://www.w3.org/2000/svg" fill-rule="evenodd" clip-rule="evenodd" id="icon">
    <path id="stroke" d="M14.283 2.578c-.642-.133-1.22.253-1.543.613-.322.362-.576.794-.877 1.36-.542 1.024-1.273 2.65-2.205 4.647-1.884.275-3.5.448-4.623.594-.624.082-1.133.158-1.584.286-.45.128-.937.283-1.264.854-.164.285-.21.65-.166.937.044.288.15.514.273.723.245.417.578.79 1.025 1.25.81.83 2.133 2.026 3.752 3.527-.32 1.866-.653 3.45-.86 4.557-.117.617-.2 1.124-.216 1.592-.017.467-.02.98.422 1.466.443.486 1.137.514 1.61.41.472-.102.932-.303 1.51-.585 1.042-.51 2.593-1.397 4.53-2.47 1.684.882 3.092 1.69 4.086 2.23.553.3 1.012.534 1.45.695.44.16.927.32 1.525.052.598-.268.843-.923.89-1.404.048-.48-.002-.98-.093-1.613-.165-1.145-.53-2.888-.955-5.05 1.36-1.323 2.563-2.41 3.386-3.184.457-.432.823-.793 1.113-1.16.288-.368.594-.782.522-1.436-.036-.327-.213-.648-.418-.854-.205-.205-.425-.327-.646-.424-.444-.194-.934-.3-1.567-.41-1.142-.197-2.92-.39-5.116-.655-.844-1.7-1.508-3.176-1.994-4.195-.27-.567-.502-1.026-.764-1.414-.26-.388-.56-.805-1.203-.938zm-.3 2.346c.134.23.27.465.462.867.51 1.073 1.208 2.68 2.24 4.71l.24.475.528.064c2.59.32 4.436.516 5.569.712.327.057.443.103.64.156-.178.198-.356.397-.678.7-.865.815-2.186 1.974-3.804 3.578l-.38.375.102.526c.496 2.555.88 4.363 1.043 5.496.048.33.037.453.047.656-.244-.108-.495-.217-.887-.43-1.045-.567-2.557-1.46-4.587-2.5l-.473-.24-.465.256c-2.285 1.26-3.892 2.18-4.924 2.686-.3.147-.425.177-.617.25.027-.265.054-.532.136-.967.22-1.166.603-2.876.967-5.12l.086-.528-.394-.364c-1.908-1.775-3.283-3.015-4.084-3.837-.23-.237-.296-.34-.424-.5.26-.055.525-.112.965-.17 1.18-.153 2.93-.316 5.186-.666l.526-.082.226-.48c1.107-2.357 1.862-4.044 2.4-5.057.156-.296.238-.393.35-.564z"/>
    <path id="fill" d="M13.816 2.566c-.448.07-.834.355-1.076.625-.322.362-.576.794-.877 1.36-.542 1.024-1.273 2.65-2.205 4.647-1.884.275-3.5.448-4.623.594-.624.082-1.133.158-1.584.286-.45.128-.937.283-1.264.854-.164.285-.21.65-.166.937.044.288.15.514.273.723.245.417.578.79 1.025 1.25.81.83 2.133 2.026 3.752 3.527-.32 1.866-.653 3.45-.86 4.557-.117.617-.2 1.124-.216 1.592-.017.467-.02.98.422 1.466.443.486 1.137.514 1.61.41.472-.102.932-.303 1.51-.585 1.042-.51 2.593-1.397 4.53-2.47 1.684.882 3.092 1.69 4.086 2.23.553.3 1.012.534 1.45.695.44.16.927.32 1.525.052.598-.268.843-.923.89-1.404.048-.48-.002-.98-.093-1.613-.165-1.145-.53-2.888-.955-5.05 1.36-1.323 2.563-2.41 3.386-3.184.457-.432.823-.793 1.113-1.16.288-.368.594-.782.522-1.436-.036-.327-.213-.648-.418-.854-.205-.205-.425-.327-.646-.423-.444-.194-.934-.3-1.567-.41-1.142-.197-2.92-.39-5.116-.655-.844-1.7-1.508-3.176-1.994-4.195-.27-.567-.502-1.026-.764-1.414-.26-.388-.56-.805-1.203-.938-.16-.033-.317-.035-.467-.012z"/>
</svg>
