<svg xmlns="http://www.w3.org/2000/svg" width="28" height="28">
 <path d="M 14.07728,22.956419 C 2.7850138,29.199539 4.9777737,28.765526 6.7543343,17.747084 -2.6727264,8.9367319 -1.5823547,10.888053 9.4457922,9.172777 14.911814,-2.5154351 13.39294,-0.87544869 18.432149,9.0828984 c 12.805248,1.5866386 10.776164,0.6488874 2.862417,8.5187596 2.448056,12.668811 2.712889,10.449258 -7.217286,5.354761 z" fill="#888"/>
 <path d="M 14.072008,22.315611 C 3.5500921,28.112053 5.5932641,27.709092 7.2486291,17.47899 -1.5353249,9.2989949 -0.51933687,11.110704 9.7564771,9.5181519 14.849611,-1.3338001 13.434353,0.1888496 18.129791,9.4347039 c 11.931683,1.4731191 10.041021,0.6024611 2.667145,7.9092651 2.281051,11.762391 2.527817,9.701641 -6.724928,4.971642 z" fill="none" stroke="#888" stroke-width="1.86"/>
</svg>
