<svg xmlns="http://www.w3.org/2000/svg" width="28" height="28">
 <path d="M 7.9999997,3 C 6.0000001,3 6.0000001,2.9999126 6.0000001,5 l 0,15 c 0,2 0,2 1.9999996,2 L 23,22 c 2.000087,0 2,0 2,-2 L 25,5 C 25,3 25,3 23,3 z M 11,7 20,7 c 1.000031,0 1,-3.05e-5 1,1 l 0,9 c 0,1 3.1e-5,1 -1,1 l -9,0 c -1.0000001,0 -1.0000001,3e-5 -1.0000001,-1 l 0,-9 c 0,-1 0,-1 1.0000001,-1 z" fill="#555555"/>
 <path d="M 3.9999998,10 C 3,10 3,10 3,10.857143 L 3,23 c 0,2 0,2 1.9999996,2 L 17,25 c 1,0 1,0 1,-1 0,-1 0,-1 -1,-1 L 6.0000001,23 C 4.9999996,23 4.9999996,23 4.9999996,22 l 0,-11 c 0,-1 0,-1 -0.9999998,-1 z" fill="#555555"/>
</svg>
