<svg xmlns="http://www.w3.org/2000/svg" width="24" height="24" viewBox="0 0 24 24">
 <path d="M 12,2 C 6.4779827,2 2,6.4779827 2,12 2,17.522017 6.4779827,22 12,22 17.522017,22 22,17.522017 22,12 22,6.4779827 17.522017,2 12,2 z m 0,4.0104167 c 1.102272,0 2.005208,0.8768946 2.005208,1.9791666 0,1.1022717 -0.902936,2.0052084 -2.005208,2.0052084 -1.102272,0 -2.0052083,-0.9029367 -2.0052083,-2.0052084 0,-1.102272 0.9029363,-1.9791666 2.0052083,-1.9791666 z M 9.9947917,12 l 4.0104163,0 0,5.989583 -4.0104163,0 0,-5.989583 z" fill="#638ce8" fill-rule="evenodd"/>
</svg>
