<svg xmlns="http://www.w3.org/2000/svg" width="49" height="49">
 <g transform="translate(3.5,3)">
  <path d="m 15,29 12,0 c 2,0 2,0 2,-1 l 0,-1 c 0,-1 0,-1 -2,-1 l -12,0 c -2.000249,0 -2,0 -2,1 l 0,1 c 0,1 0,1 2,1 z" fill="#888888"/>
  <path d="m 15,23 12,0 c 2,0 2,0 2,-1 l 0,-1 c 0,-1 0,-1 -2,-1 l -12,0 c -2.000249,0 -2,0 -2,1 l 0,1 c 0,1 0,1 2,1 z" fill="#888888"/>
  <path d="m 15,17 12,0 c 2,0 2,0 2,-1 l 0,-1 c 0,-1 0,-1 -2,-1 l -12,0 c -2.000249,0 -2,0 -2,1 l 0,1 c 0,1 0,1 2,1 z" fill="#888888"/>
 </g>
</svg>
