<svg version="1.1" xmlns="http://www.w3.org/2000/svg" id="icon" width="28" height="28" viewBox="0 0 28 28">
    <g transform="translate(-10,-10)">
        <path d="m 18,32 12,0 c 2,0 2,0 2,-1 l 0,-1 c 0,-1 0,-1 -2,-1 l -12,0 c -2.000249,0 -2,0 -2,1 l 0,1 c 0,1 0,1 2,1 z"/>
        <path d="m 18,26 12,0 c 2,0 2,0 2,-1 l 0,-1 c 0,-1 0,-1 -2,-1 l -12,0 c -2.000249,0 -2,0 -2,1 l 0,1 c 0,1 0,1 2,1 z"/>
        <path d="m 18,20 12,0 c 2,0 2,0 2,-1 l 0,-1 c 0,-1 0,-1 -2,-1 l -12,0 c -2.000249,0 -2,0 -2,1 l 0,1 c 0,1 0,1 2,1 z"/>
    </g>
</svg>
