<svg xmlns="http://www.w3.org/2000/svg" width="28" height="28">
 <g transform="translate(-10,-10)">
  <path d="m 18,32 12,0 c 2,0 2,0 2,-1 l 0,-1 c 0,-1 0,-1 -2,-1 l -12,0 c -2.000249,0 -2,0 -2,1 l 0,1 c 0,1 0,1 2,1 z" fill="#888888"/>
  <path d="m 18,26 12,0 c 2,0 2,0 2,-1 l 0,-1 c 0,-1 0,-1 -2,-1 l -12,0 c -2.000249,0 -2,0 -2,1 l 0,1 c 0,1 0,1 2,1 z" fill="#888888"/>
  <path d="m 18,20 12,0 c 2,0 2,0 2,-1 l 0,-1 c 0,-1 0,-1 -2,-1 l -12,0 c -2.000249,0 -2,0 -2,1 l 0,1 c 0,1 0,1 2,1 z" fill="#888888"/>
 </g>
</svg>
