<svg xmlns="http://www.w3.org/2000/svg" width="24" height="24">
 <path d="m 2,18 20,0 -2.499999,-3.5 -15.0000008,0 z m 6,1 c 0,1 2,3.000002 4.000001,3.000001 C 14,22 16,20 16,19 z M 12.028725,2.0089959 C 9.197859,1.8523659 6.4801667,3.7631174 5.3800465,5.9958389 4.6400865,7.5554841 4.6058752,7.8009117 4.5496139,12.041813 L 4.4999999,15.75 l 15.0000011,0 0,-3.357695 c 0,-3.4884295 -0.0544,-4.160777 -0.428274,-5.3449909 C 18.680933,5.8095102 18.237803,5.0675238 17.285517,4.0599237 15.811549,2.418711 13.630386,2.0132209 12.028725,2.0089959 z" fill="#888888"/>
</svg>
