<svg version="1.1" xmlns="http://www.w3.org/2000/svg" width="28" height="28">
  <g transform="translate(0,-0.99999997)">
    <path d="M 18 3 C 14.661356 3.1329198 13.876148 4.0872521 12.4375 6.125 C 11.551696 9.2368721 11.544264 13.562326 13.125 15.6875 C 13.789392 16.695566 14.710574 18.012323 14 19.21875 C 13.157772 20.425576 11.936285 21.274758 10.65625 22 C 10.335695 21.729203 10.059232 21.406857 9.8125 21.0625 C 9.3150996 20.239936 9.9411717 19.343567 10.40625 18.65625 C 11.57514 17.07892 11.727449 13.640877 10.875 12.09375 C 10.104763 10.752473 9.3333338 10.051541 7 10 C 4.6629492 10.090627 3.8989522 10.735627 3.125 12.125 C 2.5049358 14.246731 2.4872348 17.207267 3.59375 18.65625 C 4.0588258 19.343567 4.6849022 20.239936 4.1875 21.0625 C 3.2680234 22.345792 1.7393752 23.050843 0.34375 23.75 C -0.1303642 23.79674 0.0317464 24.218801 0 24.53125 C -0.0007616 24.779736 -0.0662 25.085103 0.3125 24.96875 L 6.46875 24.96875 L 7.53125 24.96875 L 8.15625 24.96875 C 8.2220258 24.995069 8.30225 25.011413 8.4375 24.96875 L 13.6875 24.96875 C 13.808684 25.005981 13.892185 25.004871 13.9375 24.96875 L 17.25 24.96875 L 18.75 24.96875 L 27.5625 24.96875 C 28.1035 25.139391 28.001085 24.645697 28 24.28125 C 27.95464 23.822993 28.177318 23.224835 27.5 23.15625 C 25.506249 22.130819 23.313542 21.100911 22 19.21875 C 21.289429 18.012322 22.210603 16.695565 22.875 15.6875 C 24.544842 13.374081 24.749034 8.3316201 23.53125 6.0625 C 22.430912 4.0952942 21.333333 3.075592 18 3 z "/>
  </g>
</svg>
