<svg xmlns="http://www.w3.org/2000/svg" width="28" height="28" viewBox="0 0 28 28">
 <g transform="translate(0,-0.99999997)" fill="#555">
  <path d="m 3.1149367,13.139375 c -0.6200642,2.121731 -0.6343596,5.059255 0.4721556,6.508238 0.4650758,0.687317 1.0996794,1.591213 0.6022772,2.413777 -0.9194766,1.283292 -2.4522624,1.975567 -3.84788759,2.674724 -0.4741142,0.04674 -0.3028522,0.470394 -0.3345986,0.782843 -7.616e-4,0.248486 -0.07756,0.573014 0.30114,0.456661 l 6.15661819,0 1.0707172,0 6.1566203,0 c 0.378701,0.116346 0.301898,-0.208175 0.301139,-0.456661 -0.03175,-0.312449 0.139524,-0.73608 -0.334599,-0.782843 -1.395626,-0.699157 -2.928408,-1.391432 -3.8478873,-2.674724 -0.4974004,-0.822564 0.1372,-1.72646 0.6022783,-2.413777 1.16889,-1.57733 1.320888,-5.009207 0.468439,-6.556334 C 10.111112,11.750002 9.3333339,11.051541 7.0000001,11 4.6629493,11.090627 3.8888889,11.750002 3.1149367,13.139375 z" color="#bebebe"/>
  <path d="m 12.44991,7.1377499 c -0.885804,3.1118721 -0.906226,7.4202421 0.67451,9.5454161 0.664392,1.008066 1.570968,2.333779 0.860394,3.540206 -1.313536,1.882161 -3.503231,2.897498 -5.496981,3.922929 -0.6773052,0.06855 -0.4326462,0.689912 -0.477998,1.148169 -0.00109,0.364447 -0.1108,0.840421 0.4302002,0.66977 l 8.7951668,0 1.529596,0 8.795172,0 c 0.541,0.170641 0.431282,-0.305323 0.430197,-0.66977 -0.04536,-0.458257 0.199319,-1.079584 -0.477999,-1.148169 -1.993751,-1.025431 -4.183439,-2.040767 -5.496981,-3.922928 -0.710571,-1.206428 0.196002,-2.532141 0.860399,-3.540206 1.669842,-2.313419 1.886982,-7.3468391 0.669198,-9.6159592 C 22.444446,5.100002 21.333334,4.0755921 18.000001,4.0000001 14.661357,4.1329199 13.555558,5.100002 12.44991,7.1377499 z" color="#bebebe"/>
 </g>
</svg>
