<svg xmlns="http://www.w3.org/2000/svg" width="24" height="24">
 <path d="M 10 0 C 6.6613554 0.1329198 5.543148 1.0872521 4.4375 3.125 C 3.551696 6.2368721 3.544264 10.562326 5.125 12.6875 C 5.789392 13.695566 6.710574 15.012323 6 16.21875 C 4.686464 18.100911 2.4937502 19.130819 0.5 20.15625 C -0.1773052 20.2248 0.0453518 20.822993 0 21.28125 C -0.00109 21.645697 -0.1035002 22.139401 0.4375 21.96875 L 9.25 21.96875 L 10.75 21.96875 L 14 21.96875 L 14 20 L 9 20 L 9 14 L 14 14 L 14 9 L 16.1875 9 C 16.50516 6.8179881 16.268034 4.4353642 15.53125 3.0625 C 14.430912 1.0952942 13.333333 0.075592 10 0 z " fill="#888888" color="#bebebe"/>
 <path d="M 15,9.9999999 15,15 l -5,0 0,4 5,0 0,5 4,0 0,-5 5,0 0,-4 -5,0 0,-5.0000001 -4,0 z" fill="#888888"/>
</svg>
