<svg xmlns="http://www.w3.org/2000/svg" width="42" height="28" viewBox="0 0 42 28">
 <path d="m 12.15671,4 c -4.4182781,0 -8.0000001,3.5818867 -8.0000001,8.000368 0,4.418481 3.581722,8.000368 8.0000001,8.000368 1.681874,0 3.243239,-0.519684 4.53125,-1.406315 l 4.875,4.875225 c 0.707107,0.707139 0.699144,0.707139 1.40625,0 l 0.34375,-0.375018 c 0.707107,-0.707139 0.707107,-0.699175 0,-1.406314 l -4.8125,-4.812722 c 1.039684,-1.350059 1.65625,-3.039441 1.65625,-4.875224 C 20.15671,7.5818867 16.574988,4 12.15671,4 z m 0,2.0000919 c 3.313708,0 6,2.6864151 6,6.0002761 0,3.313861 -2.686292,6.000276 -6,6.000276 -3.3137086,0 -6.0000001,-2.686415 -6.0000001,-6.000276 0,-3.313861 2.6862915,-6.0002761 6.0000001,-6.0002761 z" fill="#999999"/>
 <path d="m 19.9375,17.688688 -2.4375,2.4375 3.5625,3.59375 c 0.973373,0.973416 0.964129,0.973416 1.9375,0 l 0.46875,-0.53125 c 0.973372,-0.973416 0.973372,-0.964085 0,-1.9375 l -3.53125,-3.5625 z" fill="#999999"/>
</svg>
