<svg xmlns="http://www.w3.org/2000/svg" width="24" height="24">
 <g transform="translate(0,-1028.3622)">
  <path d="m 12.273409,1030.3651 a 9.9989212,9.9989212 0 0 0 -10.2723305,9.999 9.9989217,9.9989217 0 0 0 19.9978435,0 9.9989212,9.9989212 0 0 0 -9.725513,-9.999 z m -0.820225,2.4998 a 7.4991908,7.4991908 0 0 1 4.921345,1.367 l -10.4676215,10.4676 a 7.4991908,7.4991908 0 0 1 -1.406099,-4.3354 7.4991908,7.4991908 0 0 1 6.9523755,-7.4992 z m 6.678968,3.1246 a 7.4991908,7.4991908 0 0 1 1.36704,4.3746 7.4991908,7.4991908 0 0 1 -11.8346615,6.0931 l 10.4676215,-10.4677 z" fill="#888" fill-rule="evenodd"/>
 </g>
</svg>
