<svg xmlns="http://www.w3.org/2000/svg" width="128" height="128">
 <g transform="translate(-8.3345353e-7,-1)">
  <path d="m 63.994267,20 c -8.055456,0 -14.585688,7.930955 -14.585688,17.714289 0,6.181635 2.611874,11.592735 6.563558,14.761902 0.729285,1.476193 1.96498,5.400339 0.729285,7.380949 C 43.137861,70.998641 31.937855,62.251502 31.17647,82 l 65.45327,0 C 98.86911,61.010605 81.16241,71.753723 71.28711,59.85714 c -1.075651,-2.514361 0,-5.904756 0.729283,-7.380949 3.951686,-3.169167 6.563558,-8.580267 6.563558,-14.761902 C 78.579951,27.930955 72.049718,20 63.994267,20 z" fill="#268bd2"/>
  <path d="M 128,88.002275 A 64.000001,12 0 0 1 3e-7,88.002275 64.000001,12 0 1 1 128,88.002275 z" fill="#ffe36a"/>
  <path d="m 35.993712,42 c -8.835016,0 -15.997206,8.698468 -15.997206,19.428574 0,6.77986 2.864636,12.714614 7.198742,16.190474 0.79986,1.61905 2.155138,5.922952 0.79986,8.095234 C 13.118946,97.933994 0.835068,88.340356 0,110 l 71.787458,0 C 74.243536,86.979374 54.823288,98.762148 43.992314,85.714282 c -1.179746,-2.757686 0,-6.476184 0.79986,-8.095234 4.334106,-3.47586 7.19874,-9.410614 7.19874,-16.190474 C 51.990914,50.698468 44.828724,42 35.993712,42 z" fill="#54a6e0"/>
  <path d="m 91.993712,42 c -8.835016,0 -15.997206,8.698468 -15.997206,19.428574 0,6.77986 2.864636,12.714614 7.198742,16.190474 0.79986,1.61905 2.155138,5.922952 0.79986,8.095234 C 69.118946,97.933994 56.835068,88.340356 56,110 l 71.78746,0 c 2.45608,-23.020626 -16.96417,-11.237852 -27.795146,-24.285718 -1.179746,-2.757686 0,-6.476184 0.799856,-8.095234 4.33411,-3.47586 7.19874,-9.410614 7.19874,-16.190474 C 107.99091,50.698468 100.82872,42 91.993712,42 z" fill="#54a6e0"/>
 </g>
</svg>
