<svg xmlns="http://www.w3.org/2000/svg" width="36" height="70">
 <path d="M 0,1 0,70 18,56.5 36,70 36,1 z" fill="#2bad90"/>
 <path d="M 0,0 0,69 18,55.5 36,69 36,0 z" fill="#33ccaa"/>
 <path d="m 17.998622,20.740626 c -8.2829432,0 -14.99862,6.715636 -14.99862,15.000371 0,6.627272 4.2975543,12.248921 10.258142,14.233353 0.750485,0.137168 1.023973,-0.325975 1.023973,-0.723775 0,-0.355441 -0.0129,-1.299332 -0.02026,-2.550707 -4.17232,0.9061 -5.0526412,-2.0111 -5.0526412,-2.0111 C 8.526871,42.956645 7.5434154,42.495344 7.5434154,42.495344 6.1814949,41.564345 7.6465493,41.582762 7.6465493,41.582762 c 1.5055711,0.106816 2.2974927,1.546115 2.2974927,1.546115 1.337978,2.291917 3.511158,1.629875 4.365696,1.246808 0.136284,-0.969674 0.523037,-1.630832 0.952147,-2.005574 -3.330673,-0.378499 -6.832623,-1.665824 -6.832623,-7.413664 0,-1.637241 0.5847327,-2.976133 1.5442466,-4.024961 -0.1547006,-0.379383 -0.6694493,-1.904284 0.1464134,-3.969712 0,0 1.259707,-0.403325 4.125357,1.537791 1.19617,-0.33242 2.479819,-0.499091 3.75518,-0.504616 1.273521,0.0052 2.55717,0.172196 3.755181,0.504616 2.863808,-1.941116 4.120753,-1.537791 4.120753,-1.537791 0.818625,2.065429 0.303877,3.590329 0.149176,3.969712 0.961355,1.048828 1.542405,2.38772 1.542405,4.024961 0,5.762573 -3.507475,7.030597 -6.849198,7.401656 0.53869,0.463216 1.018447,1.378524 1.018447,2.77819 0,2.004617 -0.01842,3.622558 -0.01842,4.114282 0,0.401484 0.269805,0.868309 1.031339,0.721934 5.955984,-1.988116 10.249856,-7.606082 10.249856,-14.231512 0,-8.284735 -6.716598,-15.000371 -15.001384,-15.000371" fill="#ffffff" fill-rule="evenodd"/>
</svg>
