<svg xmlns="http://www.w3.org/2000/svg" width="128" height="128" xmlns:xlink="http://www.w3.org/1999/xlink">
 <g transform="matrix(-0.99999995,0,0,0.99999983,144.49999,-943.36203)" fill="#f96e66">
  <path d="m 76.5,962.36219 c 14,0 14,0 14,14 l 0,32.00001 c 0,14 0,14 -14,14 l -16,0 0,20 -18,-20 -12,0 c -14,0 -14,0 -14,-14 l 0,-32.00001 c 0,-14 0,-14 14,-14" id="0"/>
 </g>
 <g transform="translate(-16.5,-933.36219)" fill="#64d8be">
  <use xlink:href="#0"/>
 </g>
 <path d="m 27.999998,44.999995 2e-6,5.000011 -3,0 c -2,0 -2,-0.03109 -2,1.961315 0,2.038685 -0.03124,2.038685 2,2.038685 l 3,0 0,11 -3,0 c -2,0 -2,0 -2,2 0,2 0,2 2,2 l 3,0 -2e-6,6.999994 c 0,2 0,2 2,2 2,0 2,0 2,-2 l 2e-6,-6.999994 11,0 L 42.999999,76 c 0,2 -0.0074,2 2,2 2,0 2,-0.04037 2,-2 L 47,69.000006 l 3,0 c 2,0 2,0 2,-2 0,-2 0,-2 -2,-2 l -3,0 0,-11 3,0 c 2,0 2,-0.01673 2,-2.038685 0,-1.961315 -0.01687,-1.961315 -2,-1.961315 l -3,0 -10e-7,-5.000011 c 0,-2 0.0328,-1.999976 -2,-2.000001 -1.967197,2.5e-5 -2,10e-7 -2,2.000001 l 10e-7,5.000011 -11,0 -2e-6,-5.000011 c 0,-2 0.0074,-2.000001 -2,-2.000001 -2,0 -2.000001,-0.0074 -2,2.000001 z M 32,54.000006 l 11,0 0,11 -11,0 z" fill="#ffffff"/>
</svg>
