<svg xmlns="http://www.w3.org/2000/svg" xmlns:xlink="http://www.w3.org/1999/xlink" width="240" height="56">
 <defs>
  <path id="0" d="m 37.779228,1038.8292 c -1e-5,1.2318 -0.422909,2.1624 -1.2687,2.7918 -0.845808,0.6295 -2.059939,0.9442 -3.642398,0.9442 -0.859447,0 -1.606343,-0.047 -2.24069,-0.1421 -0.634353,-0.088 -1.282344,-0.2538 -1.943976,-0.4975 l 0,-3.1776 c 0.620706,0.2707 1.299392,0.4941 2.03606,0.67 0.743483,0.176 1.405114,0.264 1.984903,0.264 0.866257,0 1.299388,-0.1963 1.299394,-0.5889 -6e-6,-0.203 -0.122784,-0.3824 -0.368332,-0.538 -0.23874,-0.1624 -0.941299,-0.4738 -2.10768,-0.934 -1.064074,-0.4331 -1.80756,-0.9239 -2.230458,-1.4721 -0.422901,-0.555 -0.634352,-1.2554 -0.634351,-2.1015 -1e-6,-1.0694 0.416078,-1.9019 1.248237,-2.4975 0.832157,-0.5956 2.008774,-0.8933 3.529854,-0.8933 0.763942,0 1.480144,0.084 2.148606,0.2537 0.675267,0.1625 1.374417,0.4028 2.097448,0.7208 l -1.084533,2.5584 c -0.532045,-0.2368 -1.094774,-0.4365 -1.688191,-0.599 -0.593432,-0.1691 -1.077721,-0.2538 -1.452867,-0.2538 -0.654818,0 -0.982224,0.1591 -0.98222,0.4772 -4e-6,0.1963 0.112541,0.3655 0.337638,0.5076 0.231907,0.1353 0.893541,0.4162 1.984902,0.8426 0.811688,0.3317 1.415343,0.6566 1.810969,0.9747 0.402428,0.318 0.695729,0.6937 0.879905,1.1268 0.190978,0.4264 0.28647,0.9476 0.28648,1.5635"/>
  <path id="1" d="m 56.998136,1030.6567 c 0.347862,0 0.678676,0.027 0.99245,0.081 l 0.225093,0.041 -0.358101,3.7463 c -0.327416,-0.081 -0.78101,-0.1219 -1.360784,-0.1219 -0.87309,0 -1.50744,0.1996 -1.903051,0.599 -0.395621,0.3926 -0.59343,0.9611 -0.593425,1.7055 l 0,5.6549 -4.000499,0 0,-11.5025 2.977355,0 0.624117,1.8376 0.194399,0 c 0.334222,-0.6092 0.798047,-1.0998 1.391478,-1.4721 0.600239,-0.379 1.203893,-0.5685 1.810968,-0.5685"/>
  <path id="2" d="m 76,1042.3622 -4,0 0,-15.797 4,0 0,15.797"/>
  <path id="3" d="m 88.636634,1031.1135 c 1.535438,0 2.690388,0.4873 3.464852,1.4619 0.781184,0.9678 1.17178,2.3858 1.171789,4.2538 -9e-6,1.8341 -0.410816,3.2487 -1.232392,4.2436 -0.814878,0.995 -1.963093,1.4924 -3.444655,1.4924 -0.781196,0 -1.484942,-0.1624 -2.111236,-0.4873 -0.626304,-0.3249 -1.121282,-0.7851 -1.484937,-1.3807 l -0.09091,0 -0.282845,1.665 -0.6263,0 0,-15.797 1.00006,0 0,3.9696 c -3e-6,0.5956 -0.01347,1.1438 -0.0404,1.6447 l -0.0303,0.8629 0.07072,0 c 0.417529,-0.6632 0.919242,-1.1505 1.50514,-1.4619 0.592623,-0.3113 1.303103,-0.467 2.131439,-0.467 m -0.0202,0.9137 c -1.293013,0 -2.218992,0.3722 -2.777944,1.1168 -0.558959,0.7445 -0.838436,1.9728 -0.838433,3.6852 l 0,0.1726 c -3e-6,1.665 0.289575,2.8596 0.868738,3.5838 0.585889,0.7241 1.495033,1.0862 2.727435,1.0862 1.198718,0 2.101127,-0.4196 2.707232,-1.2589 0.606086,-0.846 0.909138,-2.0473 0.909147,-3.604 -9e-6,-3.1878 -1.198736,-4.7817 -3.596175,-4.7817"/>
  <path id="4" d="m 109.5705,1042.5652 c -1.56912,0 -2.79814,-0.4974 -3.68709,-1.4924 -0.88894,-0.9949 -1.33341,-2.3824 -1.33341,-4.1624 0,-1.8273 0.46131,-3.2487 1.38392,-4.264 0.92261,-1.0219 2.18531,-1.5329 3.78811,-1.5329 0.94954,0 1.85869,0.1658 2.72743,0.4975 l -0.27274,0.8933 c -0.94955,-0.318 -1.77453,-0.4771 -2.4749,-0.4771 -1.34688,0 -2.36715,0.4196 -3.06079,1.2589 -0.69365,0.8324 -1.04047,2.0338 -1.04046,3.604 -1e-5,1.4891 0.34681,2.6565 1.04046,3.5026 0.69364,0.8392 1.66341,1.2588 2.90927,1.2588 0.99668,0 1.92267,-0.1794 2.77794,-0.538 l 0,0.9339 c -0.70038,0.3452 -1.61964,0.5178 -2.75774,0.5178"/>
  <path id="5" d="m 14.000045,1020.3622 -10.000045,10 5.664746,0 4.335208,-4.3664 4.335305,4.3664 5.664766,0 z" fill="#33ccaa"/>
  <path id="6" d="m 14.000043,1048.3622 -10.000046,-10 5.664746,0 4.335208,4.3664 4.335305,-4.3664 5.664766,0 z"/>
 </defs>
 <g>
  <use transform="matrix(2,0,0,2,-7.999994,-2041.1304)" height="372.05" width="524.41" xlink:href="#0" fill="#ffffff"/>
  <path d="m 81.263742,44 c -3.79247,0 -6.670918,-1.0152 -8.63535,-3.0456 -1.9508,-2.0304 -2.926198,-4.9476 -2.926196,-8.7512 -2e-6,-3.8172 1.05725,-6.775 3.171752,-8.873 2.114494,-2.0982 5.12254,-3.1472 9.024144,-3.1472 2.687446,0 5.218024,0.582 7.591742,1.746 l -2.353236,5.868 c -0.968594,-0.4196 -1.862144,-0.7512 -2.680642,-0.9948 -0.818532,-0.2574 -1.671152,-0.3858 -2.557864,-0.3858 -1.295998,0 -2.29868,0.5008 -3.008046,1.5026 -0.709394,1.0016 -1.064082,2.4162 -1.064074,4.2434 -8e-6,3.682 1.371004,5.523 4.113048,5.523 2.346396,0 4.597312,-0.6768 6.752762,-2.0304 l 0,6.3146 C 86.631828,43.3232 84.155818,44 81.263742,44" fill="#ffffff"/>
  <use transform="matrix(2,0,0,2,-7.999994,-2041.1304)" height="372.05" width="524.41" xlink:href="#1" fill="#ffffff"/>
  <path d="m 132.65556,32.0408 c -2e-5,3.763 -1.02317,6.7004 -3.06944,8.812 C 127.55345,42.951 124.70229,44 121.03263,44 c -3.51964,0 -6.32305,-1.076 -8.41026,-3.2284 -2.07358,-2.1522 -3.11037,-5.0626 -3.11036,-8.7308 -1e-5,-3.7496 1.01632,-6.66 3.04897,-8.731 2.04628,-2.0846 4.91109,-3.1268 8.59442,-3.1268 2.27819,0 4.29038,0.4804 6.03656,1.4416 1.74615,0.961 3.08988,2.3418 4.03119,4.142 0.95492,1.7868 1.43239,3.8782 1.43241,6.2742 m -15.01978,0 c -1e-5,1.9762 0.26601,3.4854 0.79806,4.5278 0.53202,1.0288 1.42557,1.543 2.68064,1.543 1.2414,0 2.11448,-0.5142 2.61925,-1.543 0.51838,-1.0424 0.77757,-2.5516 0.77759,-4.5278 -2e-5,-1.963 -0.25921,-3.445 -0.77759,-4.4468 -0.51841,-1.0016 -1.40514,-1.5024 -2.66018,-1.5024 -1.22778,0 -2.10769,0.5008 -2.63971,1.5024 -0.53205,0.9882 -0.79807,2.4704 -0.79806,4.4468" fill="#ffffff"/>
  <use transform="matrix(2,0,0,2,-7.999994,-2041.1304)" height="372.05" width="524.41" xlink:href="#2" fill="#ffffff"/>
  <path d="m 156.00001,43.594 -8,0 0,-31.594 8,0 0,31.594" fill="#ffffff"/>
  <use transform="matrix(2,0,0,2,-7.999994,-2041.1304)" height="372.05" width="524.41" xlink:href="#3" fill="#ffffff"/>
  <path d="m 196.52521,43.594 -0.5051,-3.4924 -0.1616,0 c -1.10446,1.4212 -2.24258,2.4298 -3.41436,3.0254 -1.15832,0.582 -2.53215,0.873 -4.12144,0.873 -2.15503,0 -3.8319,-0.555 -5.03061,-1.6648 -1.19873,-1.1102 -1.79809,-2.6464 -1.79809,-4.6094 0,-2.1522 0.88895,-3.824 2.66683,-5.015 1.79135,-1.1912 4.37736,-1.8206 7.75805,-1.8884 l 4.18204,-0.122 0,-1.462 c -2e-5,-2.098 -0.42428,-3.6818 -1.2728,-4.7512 -0.84854,-1.0694 -2.21564,-1.6042 -4.10124,-1.6042 -2.0338,0 -4.14167,0.5686 -6.32362,1.7056 l -0.74751,-1.746 c 2.41092,-1.1372 4.7949,-1.7056 7.15193,-1.7056 2.4109,0 4.209,0.6292 5.39428,1.8884 1.1987,1.2588 1.79806,3.2214 1.79808,5.888 l 0,14.6802 -1.47484,0 m -8.08127,-1.4212 c 2.34353,0 4.18877,-0.6702 5.53567,-2.0102 1.36032,-1.3536 2.0405,-3.2284 2.04052,-5.6244 l 0,-2.1726 -3.8386,0.162 c -3.08437,0.15 -5.28653,0.6362 -6.60645,1.4618 -1.30649,0.8124 -1.95974,2.0846 -1.95972,3.8174 -2e-5,1.3808 0.41752,2.4568 1.25259,3.2284 0.84853,0.758 2.04052,1.137 3.57599,1.137" fill="#ffffff"/>
  <use transform="matrix(2,0,0,2,-7.999994,-2041.1304)" height="372.05" width="524.41" xlink:href="#4" fill="#ffffff"/>
  <path d="m 221.95971,33.9086 11.2128,-12.3856 2.42436,0 -8.64696,9.4212 9.39448,12.6498 -2.40418,0 -8.34392,-11.1472 -3.59618,3.2894 0,7.8578 -2.0001,0 0,-31.594 2.0001,0 0,15.8376 -0.1414,6.071 0.1012,0" fill="#ffffff"/>
 </g>
 <g>
  <use transform="matrix(2,0,0,2,-7.999994,-2040.7244)" height="372.05" width="524.41" xlink:href="#5"/>
  <path d="m 0,23.9996 0,8 40,0 0,-8 z" fill="#ffffff"/>
  <use transform="matrix(2,0,0,2,-7.999994,-2040.7244)" height="372.05" width="524.41" xlink:href="#6" fill="#ffffff"/>
 </g>
</svg>
