<svg width="237" height="56" viewBox="0 0 237 56" xmlns="http://www.w3.org/2000/svg"><title>scrollback-logo</title><g fill="none" fill-rule="evenodd"><path d="M67.56 36.528c0 2.464-.848 4.324-2.54 5.584C63.33 43.372 60.9 44 57.736 44c-1.72 0-3.212-.094-4.48-.284-1.27-.176-2.566-.508-3.89-.996v-6.354c1.24.54 2.6.988 4.074 1.34 1.486.352 2.81.528 3.968.528 1.734 0 2.6-.394 2.6-1.18 0-.404-.246-.764-.74-1.074-.474-.324-1.88-.948-4.212-1.868-2.128-.866-3.616-1.848-4.46-2.944-.846-1.11-1.27-2.512-1.27-4.204 0-2.14.832-3.804 2.496-4.994 1.67-1.192 4.02-1.786 7.06-1.786 1.534 0 2.96.166 4.3.506 1.354.326 2.752.806 4.2 1.44l-2.17 5.12c-1.064-.474-2.19-.874-3.38-1.2-1.184-.34-2.152-.506-2.9-.506-1.312 0-1.968.32-1.968.954 0 .386.226.724.676 1.008.464.272 1.786.834 3.97 1.686 1.624.66 2.83 1.312 3.62 1.948.806.64 1.394 1.388 1.76 2.256.384.852.574 1.894.574 3.126M81.264 44c-3.792 0-6.672-1.016-8.636-3.046-1.95-2.03-2.926-4.948-2.926-8.75 0-3.82 1.06-6.776 3.18-8.874 2.112-2.1 5.12-3.146 9.02-3.146 2.688 0 5.22.58 7.592 1.744l-2.354 5.868c-.97-.42-1.86-.75-2.68-.994-.82-.252-1.674-.38-2.56-.38-1.296 0-2.3.5-3.008 1.5-.708 1-1.064 2.42-1.064 4.24 0 3.688 1.372 5.53 4.112 5.53 2.344 0 4.594-.68 6.75-2.03v6.312C86.63 43.326 84.154 44 81.26 44m24.736-23.82c.696.006 1.36.06 1.986.166l.456.08-.716 7.496c-.66-.16-1.56-.24-2.72-.24-1.75 0-3.02.4-3.81 1.2-.792.78-1.188 1.92-1.188 3.408V43.6h-8V20.588h5.96l1.246 3.674h.392c.666-1.22 1.594-2.2 2.78-2.944 1.2-.76 2.408-1.136 3.62-1.136M132.66 32.04c0 3.764-1.024 6.7-3.07 8.812-2.036 2.1-4.89 3.148-8.558 3.148-3.52 0-6.32-1.076-8.41-3.228-2.068-2.152-3.104-5.06-3.104-8.732 0-3.748 1.016-6.66 3.05-8.73 2.048-2.084 4.912-3.126 8.596-3.126 2.28 0 4.292.48 6.04 1.44 1.744.96 3.088 2.34 4.03 4.14.954 1.79 1.432 3.88 1.432 6.276m-15.02 0c0 1.98.268 3.486.8 4.528.532 1.03 1.426 1.544 2.68 1.544 1.24 0 2.114-.514 2.62-1.544.52-1.04.78-2.55.78-4.528 0-1.96-.26-3.444-.78-4.446-.52-1-1.406-1.5-2.66-1.5-1.228 0-2.108.5-2.64 1.5-.532.988-.8 2.47-.8 4.446M144 43.594h-8V12h8m12 31.594h-8V12h8m13.274 9.096c3.07 0 5.38.976 6.93 2.924 1.56 1.936 2.34 4.772 2.34 8.508 0 3.668-.82 6.5-2.46 8.488-1.632 1.99-3.928 2.984-6.892 2.984-1.56 0-2.97-.324-4.22-.974-1.254-.65-2.244-1.57-2.972-2.76h-.18l-.568 3.328H160V12h2v7.94c0 1.19-.026 2.286-.08 3.288l-.06 1.726h.14c.836-1.326 1.84-2.3 3.01-2.924 1.186-.62 2.606-.934 4.264-.934m-.04 1.828c-2.588 0-4.44.744-5.56 2.234-1.114 1.48-1.674 3.94-1.674 7.364v.346c0 3.33.58 5.72 1.74 7.166 1.17 1.446 2.988 2.172 5.452 2.172 2.4 0 4.2-.84 5.414-2.52 1.214-1.69 1.82-4.094 1.82-7.206 0-6.374-2.4-9.56-7.192-9.56m27.292 20.674l-.506-3.492h-.16c-1.106 1.42-2.244 2.436-3.416 3.032-1.16.58-2.532.872-4.12.872-2.156 0-3.834-.552-5.032-1.66-1.2-1.112-1.8-2.65-1.8-4.612 0-2.152.892-3.824 2.668-5.016 1.792-1.19 4.38-1.82 7.76-1.888l4.18-.12v-1.46c0-2.1-.424-3.684-1.272-4.752-.848-1.07-2.216-1.606-4.1-1.606-2.034.004-4.14.572-6.324 1.708l-.748-1.748c2.41-1.134 4.794-1.7 7.152-1.7 2.41-.004 4.208.626 5.394 1.886 1.2 1.26 1.8 3.22 1.8 5.886v14.68m-9.552-1.42c2.344 0 4.188-.67 5.536-2.01 1.36-1.352 2.04-3.226 2.04-5.62V32.38l-3.84.16c-3.08.154-5.28.64-6.604 1.46-1.306.82-1.96 2.09-1.96 3.82 0 1.38.42 2.46 1.254 3.23.848.76 2.04 1.14 3.576 1.14M211.14 44c-3.14 0-5.596-.994-7.374-2.984-1.78-1.99-2.666-4.766-2.666-8.326 0-3.654.92-6.496 2.768-8.528 1.846-2.04 4.37-3.06 7.576-3.06 1.9 0 3.72.332 5.454.996l-.55 1.786c-1.9-.64-3.55-.954-4.95-.954-2.692 0-4.732.84-6.12 2.52-1.388 1.66-2.08 4.066-2.08 7.206 0 2.98.692 5.312 2.08 7.006 1.388 1.68 3.326 2.514 5.82 2.514 1.992 0 3.844-.36 5.554-1.076v1.866c-1.4.69-3.24 1.036-5.514 1.036m10.82-10.092l11.212-12.386 2.424.008-8.646 9.42 9.394 12.65h-2.404l-8.344-11.15L222 35.736v7.86h-2V12h2v15.84l-.14 6.068" id="Shape" fill="#FFF"/><path d="M20 0L0 20h11.33L20 11.268 28.67 20H40L20 0z" id="Shape" fill="#3CA"/><path d="M0 24h40v8H0v-8zm20 32L0 36h11.33L20 44.732 28.67 36H40L20 56z" fill="#FFF"/></g></svg>