<svg xmlns="http://www.w3.org/2000/svg" xmlns:xlink="http://www.w3.org/1999/xlink" width="150" height="35"><defs><path id="a" d="M37.78 1038.83c0 1.23-.424 2.162-1.27 2.79-.845.63-2.06.945-3.642.945-.86 0-1.606-.047-2.24-.142-.635-.088-1.283-.254-1.945-.497v-3.178c.62.27 1.3.494 2.037.67.743.176 1.405.264 1.984.264.867 0 1.3-.196 1.3-.59 0-.202-.123-.38-.37-.537-.237-.162-.94-.474-2.106-.934-1.064-.432-1.808-.923-2.23-1.47-.424-.556-.635-1.256-.635-2.103 0-1.07.416-1.9 1.248-2.497.833-.596 2.01-.893 3.53-.893.765 0 1.48.084 2.15.253.675.163 1.374.403 2.097.72l-1.084 2.56c-.532-.237-1.095-.437-1.69-.6-.592-.168-1.076-.253-1.45-.253-.656 0-.984.16-.984.477 0 .196.112.365.337.508.232.135.894.416 1.985.842.812.332 1.415.657 1.81.975.403.317.697.693.88 1.126.192.426.287.947.287 1.563"/><path id="b" d="M56.998 1030.657c.348 0 .68.027.993.08l.226.042-.358 3.745c-.328-.08-.78-.122-1.36-.122-.874 0-1.51.2-1.904.6-.396.392-.594.96-.594 1.705v5.654h-4v-11.502h2.977l.624 1.838h.196c.334-.61.798-1.1 1.39-1.473.6-.38 1.205-.568 1.812-.568"/><path id="c" d="M76 1042.362h-4v-15.797h4v15.797"/><path id="d" d="M88.637 1031.113c1.535 0 2.69.488 3.464 1.462.783.968 1.173 2.386 1.173 4.254 0 1.833-.41 3.248-1.232 4.243-.814.995-1.962 1.492-3.444 1.492-.78 0-1.485-.162-2.11-.487-.627-.325-1.122-.785-1.486-1.38h-.09l-.284 1.664H84v-15.797h1v3.97c0 .595-.013 1.144-.04 1.644l-.03.862H85c.418-.663.92-1.15 1.505-1.46.593-.313 1.303-.47 2.132-.47m-.02.915c-1.294 0-2.22.372-2.778 1.117-.56.745-.84 1.973-.84 3.685v.172c0 1.665.29 2.86.87 3.584.585.724 1.494 1.086 2.726 1.086 1.2 0 2.1-.42 2.707-1.26.607-.845.91-2.046.91-3.603 0-3.19-1.2-4.783-3.597-4.783"/><path id="e" d="M109.57 1042.565c-1.57 0-2.798-.497-3.687-1.492-.89-.995-1.333-2.383-1.333-4.163 0-1.827.46-3.248 1.384-4.264.923-1.02 2.185-1.532 3.788-1.532.95 0 1.86.165 2.727.497l-.273.894c-.95-.318-1.775-.477-2.475-.477-1.347 0-2.367.42-3.06 1.26-.695.83-1.04 2.033-1.04 3.603 0 1.49.345 2.657 1.04 3.503.693.84 1.662 1.26 2.908 1.26.997 0 1.923-.18 2.778-.54v.934c-.7.346-1.62.518-2.757.518"/><path id="f" d="M14 1020.362l-10 10h5.665l4.335-4.366 4.335 4.366H24z" fill="#3ca"/><path id="g" d="M14 1048.362l-10-10h5.665L14 1042.73l4.335-4.368H24z"/></defs><g fill="#555" transform="scale(.625)"><use xlink:href="#a" width="524.41" height="372.05" transform="matrix(2 0 0 2 -8 -2041.13)"/><path d="M81.264 44c-3.793 0-6.67-1.015-8.636-3.046-1.95-2.03-2.926-4.947-2.926-8.75 0-3.818 1.057-6.776 3.172-8.874 2.114-2.098 5.122-3.147 9.024-3.147 2.688 0 5.218.582 7.592 1.746l-2.353 5.867c-.97-.42-1.863-.75-2.68-.995-.82-.257-1.672-.386-2.56-.386-1.295 0-2.298.5-3.007 1.503-.71 1-1.064 2.415-1.064 4.242 0 3.682 1.37 5.523 4.113 5.523 2.345 0 4.596-.676 6.752-2.03v6.315c-2.06 1.353-4.536 2.03-7.428 2.03"/><use xlink:href="#b" width="524.41" height="372.05" transform="matrix(2 0 0 2 -8 -2041.13)"/><path d="M132.656 32.04c0 3.764-1.024 6.7-3.07 8.813-2.033 2.098-4.884 3.147-8.553 3.147-3.52 0-6.323-1.076-8.41-3.228-2.074-2.153-3.11-5.063-3.11-8.73 0-3.75 1.015-6.66 3.048-8.732 2.047-2.085 4.912-3.127 8.595-3.127 2.28 0 4.29.48 6.037 1.442 1.746.96 3.09 2.34 4.03 4.142.956 1.786 1.434 3.878 1.434 6.274m-15.02 0c0 1.977.266 3.486.798 4.53.532 1.027 1.425 1.542 2.68 1.542 1.242 0 2.115-.515 2.62-1.543.518-1.044.777-2.553.777-4.53 0-1.962-.258-3.444-.776-4.446-.52-1.002-1.405-1.502-2.66-1.502-1.228 0-2.108.5-2.64 1.502-.532.988-.798 2.47-.798 4.447"/><use xlink:href="#c" width="524.41" height="372.05" transform="matrix(2 0 0 2 -8 -2041.13)"/><path d="M156 43.594h-8V12h8v31.594"/><use xlink:href="#d" width="524.41" height="372.05" transform="matrix(2 0 0 2 -8 -2041.13)"/><path d="M196.525 43.594l-.505-3.492h-.16c-1.106 1.42-2.244 2.43-3.416 3.025-1.158.582-2.532.873-4.12.873-2.156 0-3.833-.555-5.032-1.665-1.2-1.11-1.798-2.646-1.798-4.61 0-2.15.89-3.823 2.667-5.014 1.792-1.19 4.378-1.82 7.76-1.888l4.18-.122v-1.462c0-2.098-.423-3.68-1.272-4.75-.848-1.07-2.216-1.605-4.1-1.605-2.035 0-4.143.57-6.325 1.706l-.747-1.747c2.41-1.138 4.795-1.706 7.152-1.706 2.41 0 4.21.63 5.394 1.888 1.2 1.26 1.798 3.222 1.798 5.888v14.68h-1.475m-8.08-1.42c2.342 0 4.188-.67 5.535-2.01 1.36-1.354 2.04-3.23 2.04-5.625v-2.173l-3.838.162c-3.085.15-5.287.636-6.607 1.462-1.306.81-1.96 2.084-1.96 3.816 0 1.38.418 2.457 1.253 3.23.848.757 2.04 1.136 3.576 1.136"/><use xlink:href="#e" width="524.41" height="372.05" transform="matrix(2 0 0 2 -8 -2041.13)"/><path d="M221.96 33.91l11.213-12.387h2.424l-8.647 9.42 9.394 12.65h-2.404l-8.344-11.146-3.596 3.29v7.857h-2V12h2v15.838l-.14 6.07h.1"/></g><g transform="scale(.625)"><use xlink:href="#f" width="524.41" height="372.05" transform="matrix(2 0 0 2 -8 -2040.724)"/><path d="M0 24v8h40v-8z" fill="#555"/><use xlink:href="#g" width="524.41" height="372.05" transform="matrix(2 0 0 2 -8 -2040.724)" fill="#555"/></g></svg>