<svg width="119" height="28" viewBox="0 0 119 28" xmlns="http://www.w3.org/2000/svg"><title>Untitled</title><desc>Created with Sketch.</desc><g fill="none" fill-rule="evenodd"><path d="M33.78 18.264c0 1.232-.424 2.162-1.27 2.792-.845.63-2.06.944-3.642.944-.86 0-1.606-.047-2.24-.142-.635-.088-1.283-.254-1.945-.498v-3.177c.62.27 1.3.494 2.037.67.743.176 1.405.264 1.984.264.867 0 1.3-.197 1.3-.59 0-.202-.123-.382-.37-.537-.237-.162-.94-.474-2.106-.934-1.064-.433-1.808-.924-2.23-1.472-.423-.555-.635-1.256-.635-2.102 0-1.07.416-1.902 1.248-2.497.835-.596 2.01-.893 3.53-.893.767 0 1.48.083 2.15.253.677.163 1.376.403 2.1.72l-1.085 2.56c-.532-.237-1.095-.437-1.69-.6-.592-.17-1.076-.253-1.45-.253-.656 0-.984.16-.984.477 0 .193.113.362.338.504.232.136.893.417 1.985.843.812.33 1.415.656 1.81.974.403.32.697.694.88 1.128.192.426.287.947.287 1.563M40.632 22c-1.896 0-3.336-.508-4.318-1.523-.975-1.015-1.463-2.474-1.463-4.375 0-1.91.53-3.388 1.59-4.437 1.056-1.05 2.56-1.573 4.51-1.573 1.344 0 2.61.29 3.796.872l-1.177 2.934c-.485-.21-.93-.375-1.34-.497-.41-.126-.837-.19-1.28-.19-.648 0-1.15.25-1.504.75s-.532 1.21-.532 2.12c0 1.844.686 2.765 2.056 2.765 1.172 0 2.297-.34 3.375-1.015v3.156C43.315 21.663 42.077 22 40.63 22m12.368-11.91c.348.003.68.03.993.083l.228.04-.358 3.748c-.33-.08-.78-.12-1.36-.12-.875 0-1.51.2-1.905.6-.396.39-.594.96-.594 1.704V21.8h-4V10.294h2.98l.623 1.837h.196c.333-.61.797-1.1 1.39-1.472.6-.38 1.204-.568 1.81-.568M66.33 16.02c0 1.882-.512 3.35-1.535 4.406C63.777 21.476 62.35 22 60.516 22c-1.76 0-3.16-.538-4.205-1.614-1.034-1.076-1.552-2.53-1.552-4.366 0-1.874.508-3.33 1.525-4.365 1.024-1.042 2.456-1.563 4.298-1.563 1.14 0 2.146.24 3.02.72.872.48 1.544 1.17 2.015 2.07.477.895.716 1.94.716 3.138m-7.51 0c0 .99.134 1.743.4 2.264.266.515.713.772 1.34.772.62 0 1.057-.257 1.31-.772.26-.52.39-1.275.39-2.264 0-.98-.13-1.722-.39-2.223-.26-.5-.703-.75-1.33-.75-.614 0-1.054.25-1.32.75-.266.494-.4 1.235-.4 2.223M72 21.797h-4V6h4m6 15.797h-4V6h4m6.637 4.548c1.535 0 2.69.488 3.465 1.462.78.968 1.17 2.386 1.17 4.254 0 1.834-.41 3.25-1.23 4.244-.816.995-1.964 1.492-3.446 1.492-.78 0-1.485-.162-2.11-.487-.627-.325-1.122-.785-1.486-1.38h-.09l-.284 1.664H80V6h1v3.97c0 .595-.013 1.143-.04 1.644l-.03.863H81c.418-.663.92-1.15 1.505-1.462.593-.31 1.303-.467 2.132-.467m-.02.914c-1.294 0-2.22.372-2.78 1.117-.557.74-.837 1.97-.837 3.682v.173c0 1.665.29 2.86.87 3.583.585.723 1.494 1.086 2.726 1.086 1.2 0 2.1-.42 2.707-1.26.607-.845.91-2.047.91-3.603 0-3.187-1.2-4.78-3.596-4.78m13.646 10.337l-.253-1.746h-.08c-.553.71-1.122 1.218-1.708 1.516-.58.29-1.266.436-2.06.436-1.078 0-1.917-.276-2.516-.83-.6-.556-.9-1.325-.9-2.306 0-1.076.446-1.912 1.334-2.508.896-.595 2.19-.91 3.88-.944l2.09-.06v-.73c0-1.05-.212-1.842-.636-2.376-.424-.535-1.108-.803-2.05-.803-1.017.002-2.07.286-3.162.854l-.374-.874c1.205-.567 2.397-.85 3.576-.85 1.205-.002 2.104.313 2.697.943.6.63.9 1.61.9 2.943v7.34m-4.776-.71c1.172 0 2.094-.335 2.768-1.005.68-.676 1.02-1.613 1.02-2.81V16.19l-1.92.08c-1.54.077-2.64.32-3.302.73-.653.41-.98 1.045-.98 1.91 0 .69.21 1.23.627 1.615.424.38 1.02.57 1.788.57M105.57 22c-1.57 0-2.798-.497-3.687-1.492-.89-.995-1.333-2.383-1.333-4.163 0-1.827.46-3.248 1.384-4.264.923-1.02 2.185-1.53 3.788-1.53.95 0 1.86.166 2.727.498l-.275.893c-.95-.32-1.775-.477-2.475-.477-1.346 0-2.366.42-3.06 1.26-.694.83-1.04 2.033-1.04 3.603 0 1.49.346 2.656 1.04 3.503.694.84 1.663 1.257 2.91 1.257.996 0 1.922-.18 2.777-.538v.933c-.7.345-1.62.518-2.757.518m5.41-5.046l5.606-6.193 1.212.004-4.323 4.71 4.697 6.325h-1.202l-4.172-5.575L111 17.868v3.93h-1V6h1v7.92l-.07 3.034" id="Shape" fill="#333"/><path d="M10 0L0 10h5.665L10 5.634 14.335 10H20L10 0z" fill="#3ca"/><path d="M0 12h20v4H0v-4zm10 16L0 18h5.665L10 22.366 14.335 18H20L10 28z" fill="#333"/></g></svg>