<svg xmlns="http://www.w3.org/2000/svg" xmlns:xlink="http://www.w3.org/1999/xlink" width="480" height="260">
 <defs>
  <path id="0" d="m 50,78 c 0,-2 0,-2 2,-2 l 20,0 c 2,0 2,0 2,2 l 0,20 c 0,2 0.0074,2 -2,2 l -20,0 c -2,0 -2,0 -2,-2 z" fill="#ddd"/>
  <path id="1" d="m 50,106 c 0,-2 0,-2 2.089921,-2 L 72,104 c 2,0 2,0 2,2.07016 C 74,108 74,108 72,108 l -20,0 c -2,0 -2,0 -2,-2 z" fill="#ddd"/>
  <path id="2" d="M 222.08882,70 C 224,70 224,70.032249 224,71.973878 224,74 224,74 222,74 c -2,0 -2,0.0074 -2,-2 0,-2 0.0486,-2 2.08882,-2 z"/>
  <path id="3" d="m 222.08882,70 c 0.86812,0 145.91934,0 150.91118,0 2,0 2,0 2,2 0,2 0,2 -2,2 0,0 -149.38144,0 -151,0 -2,0 -2,0.0074 -2,-2 0,-2 0.0486,-2 2.08882,-2 z"/>
  <path id="4" d="m 222.08882,70 c 0.86812,0 25.91934,0 30.91118,0 2,0 2,0 2,2 0,2 0,2 -2,2 0,0 -29.38144,0 -31,0 -2,0 -2,0.0074 -2,-2 0,-2 0.0486,-2 2.08882,-2 z"/>
 </defs>
 <path d="M 10.09298,0 469.96493,0 C 480,0 480,0 480,8.157638 l 0,243.711152 C 480,260 480,260 470,260 L 10,260 C 0,260 0,260 0,251.97138 L 0,8.106345 C 0,0 0,0 10.09298,0 z" fill="#333333"/>
 <path d="m 35,29.999418 410,0 c 5,0 5,0 5,3.846165 l 0,192.308247 C 450,230 450,230 445,230 l -410,0 c -5,0 -5,0 -5,-3.84617 L 30,33.845583 c 0,-3.846165 0,-3.846165 5,-3.846165 z" fill="#fff"/>
 <path d="M 33.34375 30 C 29.994141 30.052584 30 30.478356 30 33.84375 L 30 226.15625 C 30 230.00242 30 230 35 230 L 210 230 L 210 30 L 35 30 C 34.375 30 33.822266 29.992488 33.34375 30 z " fill="#eee"/>
 <path d="M 33.34375,29.999418 C 29.99414,30.052003 30,30.480189 30,33.845583 L 30,60 l 420,0 0,-26.154417 c 0,-3.846165 0,-3.846165 -5,-3.846165 l -410,0 c -0.625,0 -1.17773,-0.0077 -1.65625,0 z" fill="#eee"/>
 <g transform="translate(0,39.548225)">
  <rect y="90" x="12.09" height="20" width="4" fill="#555555"/>
  <path d="m 19.055439,75.90355 a 5.0000002,5.0000004 0 0 1 -10.0000005,0 5.0000002,5.0000004 0 1 1 10.0000005,0 z" fill="#555555"/>
 </g>
 <path d="m 30,59 420,0 0,1 -420,0 z" fill="#ddd"/>
 <path d="m 210,29.5 0,200 -1,0 0,-200 z" fill="#ddd"/>
 <path d="m 220,41 c 0,-2 0,-2 2.16897,-2 l 75.91898,0 C 300,39 300,39 300,41 l 0,8.006917 C 300,51 300,51 298,51 l -76,0 c -2,0 -2,0 -2,-1.993083 z" fill="#ddd"/>
 <path d="M 47.118645,37.879355 41.271186,43.726808 40,44.997997 l 1.271186,1.271188 5.847459,5.84746 c 0.508475,0.508471 0.508475,0.508471 1.016949,0 l 0.254237,-0.254242 c 0.508475,-0.508469 0.508475,-0.508469 0,-1.016946 l -5.847457,-5.84746 5.847457,-5.847461 c 0.508475,-0.508468 0.508475,-0.508468 0,-1.016946 l -0.254237,-0.254235 c -0.508474,-0.508476 -0.508474,-0.508476 -1.016949,0 z" fill="#888"/>
 <path d="m 76.5,37.497998 c -4.141513,0 -7.5,3.358487 -7.5,7.5 0,4.141513 3.358487,7.5 7.5,7.5 4.141513,0 7.5,-3.358487 7.5,-7.5 0,-4.141513 -3.358487,-7.5 -7.5,-7.5 z m 0,3.007813 c 0.826704,0 1.503906,0.65767 1.503906,1.484375 0,0.826703 -0.677202,1.503906 -1.503906,1.503906 -0.826704,0 -1.503906,-0.677203 -1.503906,-1.503906 0,-0.826705 0.677202,-1.484375 1.503906,-1.484375 z m -1.503906,4.492187 3.007812,0 0,4.492188 -3.007812,0 0,-4.492188 z" fill="#dddddd" fill-rule="evenodd"/>
 <rect width="50" height="30" x="104" y="30" fill="#dddddd"/>
 <g transform="matrix(0.68181819,0,0,0.68181819,120,34.770725)" fill="#888">
  <path d="m 3.1149367,13.139375 c -0.6200642,2.121731 -0.6343596,5.059255 0.4721556,6.508238 0.4650758,0.687317 1.0996794,1.591213 0.6022772,2.413777 -0.9194766,1.283292 -2.4522624,1.975567 -3.84788759,2.674724 -0.4741142,0.04674 -0.3028522,0.470394 -0.3345986,0.782843 -7.616e-4,0.248486 -0.07756,0.573014 0.30114,0.456661 l 6.15661819,0 1.0707172,0 6.1566203,0 c 0.378701,0.116346 0.301898,-0.208175 0.301139,-0.456661 -0.03175,-0.312449 0.139524,-0.73608 -0.334599,-0.782843 -1.395626,-0.699157 -2.928408,-1.391432 -3.8478873,-2.674724 -0.4974004,-0.822564 0.1372,-1.72646 0.6022783,-2.413777 1.16889,-1.57733 1.320888,-5.009207 0.468439,-6.556334 C 10.111112,11.750002 9.3333339,11.051541 7.0000001,11 4.6629493,11.090627 3.8888889,11.750002 3.1149367,13.139375 z" color="#bebebe"/>
  <path d="m 12.44991,7.1377499 c -0.885804,3.1118721 -0.906226,7.4202421 0.67451,9.5454161 0.664392,1.008066 1.570968,2.333779 0.860394,3.540206 -1.313536,1.882161 -3.503231,2.897498 -5.496981,3.922929 -0.6773052,0.06855 -0.4326462,0.689912 -0.477998,1.148169 -0.00109,0.364447 -0.1108,0.840421 0.4302002,0.66977 l 8.7951668,0 1.529596,0 8.795172,0 c 0.541,0.170641 0.431282,-0.305323 0.430197,-0.66977 -0.04536,-0.458257 0.199319,-1.079584 -0.477999,-1.148169 -1.993751,-1.025431 -4.183439,-2.040767 -5.496981,-3.922928 -0.710571,-1.206428 0.196002,-2.532141 0.860399,-3.540206 1.669842,-2.313419 1.886982,-7.3468391 0.669198,-9.6159592 C 22.444446,5.100002 21.333334,4.0755921 18.000001,4.0000001 14.661357,4.1329199 13.555558,5.100002 12.44991,7.1377499 z" color="#bebebe"/>
 </g>
 <path d="m 175.28574,37.497998 c -2.28574,0 -2.28574,0 -2.28574,2.380634 l 0,7.141896 c 0,2.380635 0,3.094757 2.28574,3.094757 l 3.42861,0 c 3.03889,3.176951 3.03432,3.176951 5.71435,0 l 3.42861,0 c 2.28574,0 2.28574,-0.714122 2.28574,-3.094757 l 0,-7.141896 c 0,-2.380634 0,-2.380634 -2.28574,-2.380634 l -12.57157,0 m 0.57144,2.857176 8.57152,0 0,1.428587 -8.57152,0 m 2.85717,1.428588 8.57153,0 0,1.428588 -8.57153,-0.0014 m -2.85717,1.429659 8.57152,0 0,1.428588 -8.57152,0" fill="#dddddd"/>
 <path d="m 311.91158,49.667167 c -6.51476,3.6018 -5.24971,3.351403 -4.22477,-3.005389 -5.43869,-5.082894 -4.80963,-3.957132 1.55277,-4.946714 3.15347,-6.743199 2.27719,-5.797053 5.18443,-0.05185 7.38764,0.915369 6.21702,0.374358 1.6514,4.914672 1.41234,7.308928 1.56512,6.028413 -4.16383,3.089284 z" fill="#888888"/>
 <g transform="matrix(0.68459658,0,0,0.68459658,393.15433,35.261614)" fill="#888888">
  <path d="m 12.15671,4 c -4.4182781,0 -8.0000001,3.5818867 -8.0000001,8.000368 0,4.418481 3.581722,8.000368 8.0000001,8.000368 1.681874,0 3.243239,-0.519684 4.53125,-1.406315 l 4.875,4.875225 c 0.707107,0.707139 0.699144,0.707139 1.40625,0 l 0.34375,-0.375018 c 0.707107,-0.707139 0.707107,-0.699175 0,-1.406314 l -4.8125,-4.812722 c 1.039684,-1.350059 1.65625,-3.039441 1.65625,-4.875224 C 20.15671,7.5818867 16.574988,4 12.15671,4 z m 0,2.0000919 c 3.313708,0 6,2.6864151 6,6.0002761 0,3.313861 -2.686292,6.000276 -6,6.000276 -3.3137086,0 -6.0000001,-2.686415 -6.0000001,-6.000276 0,-3.313861 2.6862915,-6.0002761 6.0000001,-6.0002761 z"/>
  <path d="m 19.9375,17.688688 -2.4375,2.4375 3.5625,3.59375 c 0.973373,0.973416 0.964129,0.973416 1.9375,0 l 0.46875,-0.53125 c 0.973372,-0.973416 0.973372,-0.964085 0,-1.9375 l -3.53125,-3.5625 z"/>
 </g>
 <path d="M 420 30 L 420 60 L 450 60 L 450 33.84375 C 450 29.997585 450 30 445 30 L 420 30 z " fill="#ddd"/>
 <g transform="translate(-2,-6)">
  <use xlink:href="#0"/>
  <use xlink:href="#1"/>
 </g>
 <g transform="translate(38,-6)">
  <use xlink:href="#0"/>
  <use xlink:href="#1"/>
 </g>
 <g transform="translate(78,-6)">
  <use xlink:href="#0"/>
  <use xlink:href="#1"/>
 </g>
 <g transform="translate(118,-6)">
  <use xlink:href="#0"/>
  <use xlink:href="#1"/>
 </g>
 <g transform="translate(-2,34)">
  <use xlink:href="#0"/>
  <use xlink:href="#1"/>
 </g>
 <g transform="translate(38,34)">
  <use xlink:href="#0"/>
  <use xlink:href="#1"/>
 </g>
 <g transform="translate(78,34)">
  <use xlink:href="#0"/>
  <use xlink:href="#1"/>
 </g>
 <g transform="translate(118,34)">
  <use xlink:href="#0"/>
  <use xlink:href="#1"/>
 </g>
 <g transform="translate(-2,74)">
  <use xlink:href="#0"/>
  <use xlink:href="#1"/>
 </g>
 <g transform="translate(38,74)">
  <use xlink:href="#0"/>
  <use xlink:href="#1"/>
 </g>
 <g transform="translate(78,74)">
  <use xlink:href="#0"/>
  <use xlink:href="#1"/>
 </g>
 <g transform="translate(118,74)">
  <use xlink:href="#0"/>
  <use xlink:href="#1"/>
 </g>
 <g transform="translate(-2,114)">
  <use xlink:href="#0"/>
  <use xlink:href="#1"/>
 </g>
 <g transform="translate(38,114)">
  <use xlink:href="#0"/>
  <use xlink:href="#1"/>
 </g>
 <g transform="translate(78,114)">
  <use xlink:href="#0"/>
  <use xlink:href="#1"/>
 </g>
 <g transform="translate(118,114)">
  <use xlink:href="#0"/>
  <use xlink:href="#1"/>
 </g>
 <g>
  <g fill="#33ccaa">
   <use xlink:href="#2"/>
  </g>
  <g transform="translate(10,0)" fill="#ddd">
   <use xlink:href="#4"/>
  </g>
  <g transform="translate(60,0)" fill="#ddd">
   <use xlink:href="#3"/>
  </g>
  <g transform="translate(60,14)" fill="#ddd">
   <path d="m 222.08882,70 c 0.86812,0 85.91934,0 90.91118,0 2,0 2,0 2,2 0,2 0,2 -2,2 0,0 -89.38144,0 -91,0 -2,0 -2,0.0074 -2,-2 0,-2 0.0486,-2 2.08882,-2 z" id="5"/>
  </g>
 </g>
 <g transform="translate(0,28)">
  <g fill="#33ccaa">
   <use xlink:href="#2"/>
  </g>
  <g transform="translate(10,0)" fill="#ddd">
   <use xlink:href="#4"/>
  </g>
  <g transform="translate(60,0)" fill="#ddd">
   <use xlink:href="#3"/>
  </g>
  <g transform="translate(60,14)" fill="#ddd">
   <path d="m 222.08882,70 c 0.86812,0 105.91934,0 110.91118,0 2,0 2,0 2,2 0,2 0,2 -2,2 0,0 -109.38144,0 -111,0 -2,0 -2,0.0074 -2,-2 0,-2 0.0486,-2 2.08882,-2 z"/>
  </g>
 </g>
 <g transform="translate(0,56)">
  <g fill="#33ccaa">
   <use xlink:href="#2"/>
  </g>
  <g transform="translate(10,0)" fill="#ddd">
   <use xlink:href="#4"/>
  </g>
  <g transform="translate(60,0)" fill="#ddd">
   <use xlink:href="#3"/>
  </g>
  <g transform="translate(60,14)" fill="#ddd">
   <path d="m 222.08882,70 c 0.86812,0 65.91934,0 70.91118,0 2,0 2,0 2,2 0,2 0,2 -2,2 0,0 -69.38144,0 -71,0 -2,0 -2,0.0074 -2,-2 0,-2 0.0486,-2 2.08882,-2 z"/>
  </g>
 </g>
 <g transform="translate(0,84)">
  <g fill="#33ccaa">
   <use xlink:href="#2"/>
  </g>
  <g transform="translate(10,0)" fill="#ddd">
   <use xlink:href="#4"/>
  </g>
  <g transform="translate(60,0)" fill="#ddd">
   <use xlink:href="#3"/>
  </g>
  <g transform="translate(60,14)" fill="#ddd">
   <path d="m 222.08882,70 c 0.86812,0 125.91934,0 130.91118,0 2,0 2,0 2,2 0,2 0,2 -2,2 0,0 -129.38144,0 -131,0 -2,0 -2,0.0074 -2,-2 0,-2 0.0486,-2 2.08882,-2 z"/>
  </g>
 </g>
 <path d="m 210,199 240,0 0,1 -240,0 z" fill="#ddd"/>
 <g>
  <g transform="translate(0,112)" fill="#33ccaa">
   <use xlink:href="#2"/>
  </g>
  <g transform="translate(10,112)" fill="#ddd">
   <use xlink:href="#4"/>
  </g>
  <g transform="translate(60,112)" fill="#ddd">
   <use xlink:href="#5"/>
  </g>
 </g>
 <g transform="matrix(0.92154731,0,0,0.92155267,425.27593,196.06895)" fill="#888">
  <path d="m 5.1264798,20 c 0,-2 7.2e-4,-2 2,-2 l 6.0002502,0 -3.00025,-4 c 0,-3 1,-3 5,1 4.99276,5.99132 5,4 0,10 -4,4 -5,4 -5,1 l 3.00025,-4 -6.0002502,0 c -2.06669,0 -2,0 -2,-2 z"/>
 </g>
</svg>
