<svg xmlns="http://www.w3.org/2000/svg" width="128" height="128">
 <path d="m 1.8249326e-6,58.000003 0,37.4375 c 0,3.55556 0.012500005067,3.5625 4.8125001750674,3.5625 l 86.375004,0 c 4.800001,0 4.812501,-0.007 4.812501,-3.5625 l 0,-37.4375 -96.0000051750674,0 z" fill="#eeeeee"/>
 <path d="m 4.812502,19.000001 c -4.80271653,0 -4.8125001750674,0.0069 -4.8125001750674,3.5625 l 0,5.4375 96.0000051750674,0 0,-5.4375 c 0,-3.555556 -0.0125,-3.5625 -4.812501,-3.5625 l -86.375004,0 z" fill="#009bb2"/>
 <path d="m 1.8249326e-6,28.000001 0,30.000002 96.0000051750674,0 0,-30.000002 -96.0000051750674,0 z" fill="#00b1cc"/>
 <g transform="matrix(-0.81081086,0,0,0.79999994,141.37838,-724.88994)" fill="#91f775">
  <path d="m 76.5,962.36219 c 14,0 14,0 14,14 l 0,32.00001 c 0,14 0,14 -14,14 l -15.498305,0.085 0.08362,19.9153 -17.665537,-20 -12.919774,0 c -14,0 -14,0 -14,-14 l 0,-32.00001 c 0,-14 0,-14 14,-14"/>
 </g>
 <path d="m 82.000006,54.999767 32.000004,0 c 4,0 4,0 4,2 0,2 0,2 -4,2 l -32.000004,0 c -4,0 -4,0 -4,-2 0,-2 -0.210526,-2 4,-2 z" fill="#000000" fill-opacity="0.235"/>
 <path d="m 82.000006,66.999767 32.000004,0 c 4,0 4,0 4,2 0,2 0,2 -4,2 l -32.000004,0 c -4,0 -4,0 -4,-2 0,-2 -0.210526,-2 4,-2 z" fill="#000000" fill-opacity="0.235"/>
 <path d="m 82.000006,78.999768 32.000004,0 c 4,0 4,0 4,2 0,2 0,2 -4,2 l -32.000004,0 c -4,0 -4,0 -4,-2 0,-2 -0.210526,-2 4,-2 z" fill="#000000" fill-opacity="0.235"/>
 <path d="m 14.000003,66.999767 32.000001,0 c 4,0 4,0 4,2 0,2 0,2 -4,2 l -32.000001,0 c -4.000001,0 -4.000001,0 -4.000001,-2 0,-2 -0.2105257,-2 4.000001,-2 z" fill="#000000" fill-opacity="0.235"/>
 <path d="m 14.000003,77.000001 32.000001,0 c 4,0 4,0 4,0.5 0,0.5 0,0.5 -4,0.5 l -32.000001,0 c -4.000001,0 -4.000001,0 -4.000001,-0.5 0,-0.5 -0.2105257,-0.5 4.000001,-0.5 z" fill="#000000" fill-opacity="0.235"/>
 <path d="m 14.000003,85.000001 32.000001,0 c 4,0 4,0 4,0.5 0,0.5 0,0.5 -4,0.5 l -32.000001,0 c -4.000001,0 -4.000001,0 -4.000001,-0.5 0,-0.5 -0.2105257,-0.5 4.000001,-0.5 z" fill="#000000" fill-opacity="0.235"/>
 <path d="m 14.000003,36.999766 32.000001,0 c 4,0 4,0 4,2 0,2 0,2 -4,2 l -32.000001,0 c -4.000001,0 -4.000001,0 -4.000001,-2 0,-2 -0.2105257,-2 4.000001,-2 z" fill="#ffffff" fill-opacity="0.235"/>
 <path d="m 14.000003,47.000001 32.000001,0 c 4,0 4,0 4,0.5 0,0.5 0,0.5 -4,0.5 l -32.000001,0 c -4.000001,0 -4.000001,0 -4.000001,-0.5 0,-0.5 -0.2105257,-0.5 4.000001,-0.5 z" fill="#ffffff" fill-opacity="0.235"/>
</svg>
