<svg xmlns="http://www.w3.org/2000/svg" xmlns:xlink="http://www.w3.org/1999/xlink" viewBox="0 0 60 60"><defs><path d="m 14 1048.36 -10 -10 5.665 0 4.335 4.366 4.335 -4.366 5.665 0 z" id="1"/><clipPath><g transform="translate(0,-1004.3622)"><rect width="46" height="46" x="1" y="1005.36" rx="4" fill="#1890d0"/></g></clipPath><clipPath><g transform="translate(0,-1004.3622)"><rect width="46" height="46" x="1" y="1005.36" rx="4" fill="#1890d0"/></g></clipPath></defs><path d="m 11 3 c -4.418 0 -8 3.582 -8 8 l 0 38 c 0 4.418 3.582 8 8 8 l 38 0 c 4.418 0 8 -3.582 8 -8 l 0 -38 c 0 -4.418 -3.582 -8 -8 -8 l -38 0 z" fill="#3ca" stroke="none" fill-opacity="1"/><g transform="translate(6,-5.9977323)"><path d="m 14 34.998 0 4 20 0 0 -4 z" opacity="0.1" fill="#000" fill-opacity="1"/><use xlink:href="#1" width="524.41" height="372.05" transform="matrix(0.9999986,0,0,0.9999986,10.00001,-997.3608)" opacity="0.1" fill="#000" fill-opacity="1"/><use transform="matrix(0.9999986,0,0,-0.9999986,10.00001,1071.3607)" height="372.05" width="524.41" xlink:href="#1" opacity="0.1" fill="#000" fill-opacity="1"/><path d="m 14 33.998 0 4 20 0 0 -4 z" fill="#fff" fill-opacity="1"/><use transform="matrix(0.9999986,0,0,0.9999986,10.00001,-998.3608)" height="372.05" width="524.41" xlink:href="#1" fill="#fff" fill-opacity="1"/><use xlink:href="#1" width="524.41" height="372.05" transform="matrix(0.9999986,0,0,-0.9999986,10.00001,1070.3607)" fill="#fff" fill-opacity="1"/></g><path d="m 3 48 l 0 1 c 0 4.418 3.582 8 8 8 l 38 0 c 4.418 0 8 -3.582 8 -8 l 0 -1 c 0 4.418 -3.582 8 -8 8 l -38 0 c -4.418 0 -8 -3.582 -8 -8 z" opacity="0.1" fill="#000" stroke="none" fill-opacity="1"/></svg>