<svg xmlns="http://www.w3.org/2000/svg" xmlns:xlink="http://www.w3.org/1999/xlink" width="360" height="56">
 <defs>
  <path id="0" d="m 37.779228,1038.8292 c -1e-5,1.2318 -0.422909,2.1624 -1.2687,2.7918 -0.845808,0.6295 -2.059939,0.9442 -3.642398,0.9442 -0.859447,0 -1.606343,-0.047 -2.24069,-0.1421 -0.634353,-0.088 -1.282344,-0.2538 -1.943976,-0.4975 l 0,-3.1776 c 0.620706,0.2707 1.299392,0.4941 2.03606,0.67 0.743483,0.176 1.405114,0.264 1.984903,0.264 0.866257,0 1.299388,-0.1963 1.299394,-0.5889 -6e-6,-0.203 -0.122784,-0.3824 -0.368332,-0.538 -0.23874,-0.1624 -0.941299,-0.4738 -2.10768,-0.934 -1.064074,-0.4331 -1.80756,-0.9239 -2.230458,-1.4721 -0.422901,-0.555 -0.634352,-1.2554 -0.634351,-2.1015 -1e-6,-1.0694 0.416078,-1.9019 1.248237,-2.4975 0.832157,-0.5956 2.008774,-0.8933 3.529854,-0.8933 0.763942,0 1.480144,0.084 2.148606,0.2537 0.675267,0.1625 1.374417,0.4028 2.097448,0.7208 l -1.084533,2.5584 c -0.532045,-0.2368 -1.094774,-0.4365 -1.688191,-0.599 -0.593432,-0.1691 -1.077721,-0.2538 -1.452867,-0.2538 -0.654818,0 -0.982224,0.1591 -0.98222,0.4772 -4e-6,0.1963 0.112541,0.3655 0.337638,0.5076 0.231907,0.1353 0.893541,0.4162 1.984902,0.8426 0.811688,0.3317 1.415343,0.6566 1.810969,0.9747 0.402428,0.318 0.695729,0.6937 0.879905,1.1268 0.190978,0.4264 0.28647,0.9476 0.28648,1.5635"/>
  <path id="1" d="m 56.998136,1030.6567 c 0.347862,0 0.678676,0.027 0.99245,0.081 l 0.225093,0.041 -0.358101,3.7463 c -0.327416,-0.081 -0.78101,-0.1219 -1.360784,-0.1219 -0.87309,0 -1.50744,0.1996 -1.903051,0.599 -0.395621,0.3926 -0.59343,0.9611 -0.593425,1.7055 l 0,5.6549 -4.000499,0 0,-11.5025 2.977355,0 0.624117,1.8376 0.194399,0 c 0.334222,-0.6092 0.798047,-1.0998 1.391478,-1.4721 0.600239,-0.379 1.203893,-0.5685 1.810968,-0.5685"/>
  <path id="2" d="m 76,1042.3622 -4,0 0,-15.797 4,0 0,15.797"/>
  <path id="3" d="m 88.636634,1031.1135 c 1.535438,0 2.690388,0.4873 3.464852,1.4619 0.781184,0.9678 1.17178,2.3858 1.171789,4.2538 -9e-6,1.8341 -0.410816,3.2487 -1.232392,4.2436 -0.814878,0.995 -1.963093,1.4924 -3.444655,1.4924 -0.781196,0 -1.484942,-0.1624 -2.111236,-0.4873 -0.626304,-0.3249 -1.121282,-0.7851 -1.484937,-1.3807 l -0.09091,0 -0.282845,1.665 -0.6263,0 0,-15.797 1.00006,0 0,3.9696 c -3e-6,0.5956 -0.01347,1.1438 -0.0404,1.6447 l -0.0303,0.8629 0.07072,0 c 0.417529,-0.6632 0.919242,-1.1505 1.50514,-1.4619 0.592623,-0.3113 1.303103,-0.467 2.131439,-0.467 m -0.0202,0.9137 c -1.293013,0 -2.218992,0.3722 -2.777944,1.1168 -0.558959,0.7445 -0.838436,1.9728 -0.838433,3.6852 l 0,0.1726 c -3e-6,1.665 0.289575,2.8596 0.868738,3.5838 0.585889,0.7241 1.495033,1.0862 2.727435,1.0862 1.198718,0 2.101127,-0.4196 2.707232,-1.2589 0.606086,-0.846 0.909138,-2.0473 0.909147,-3.604 -9e-6,-3.1878 -1.198736,-4.7817 -3.596175,-4.7817"/>
  <path id="4" d="m 109.5705,1042.5652 c -1.56912,0 -2.79814,-0.4974 -3.68709,-1.4924 -0.88894,-0.9949 -1.33341,-2.3824 -1.33341,-4.1624 0,-1.8273 0.46131,-3.2487 1.38392,-4.264 0.92261,-1.0219 2.18531,-1.5329 3.78811,-1.5329 0.94954,0 1.85869,0.1658 2.72743,0.4975 l -0.27274,0.8933 c -0.94955,-0.318 -1.77453,-0.4771 -2.4749,-0.4771 -1.34688,0 -2.36715,0.4196 -3.06079,1.2589 -0.69365,0.8324 -1.04047,2.0338 -1.04046,3.604 -1e-5,1.4891 0.34681,2.6565 1.04046,3.5026 0.69364,0.8392 1.66341,1.2588 2.90927,1.2588 0.99668,0 1.92267,-0.1794 2.77794,-0.538 l 0,0.9339 c -0.70038,0.3452 -1.61964,0.5178 -2.75774,0.5178"/>
  <path id="5" d="m 14.000045,1020.3622 -10.000045,10 5.664746,0 4.335208,-4.3664 4.335305,4.3664 5.664766,0 z" fill="#33ccaa"/>
  <path id="6" d="m 14.000043,1048.3622 -10.000046,-10 5.664746,0 4.335208,4.3664 4.335305,-4.3664 5.664766,0 z"/>
 </defs>
 <g>
  <use transform="matrix(2,0,0,2,-7.999994,-2041.1304)" height="372.05" width="524.41" xlink:href="#0" fill="#ffffff"/>
  <path d="m 81.263742,44 c -3.79247,0 -6.670918,-1.0152 -8.63535,-3.0456 -1.9508,-2.0304 -2.926198,-4.9476 -2.926196,-8.7512 -2e-6,-3.8172 1.05725,-6.775 3.171752,-8.873 2.114494,-2.0982 5.12254,-3.1472 9.024144,-3.1472 2.687446,0 5.218024,0.582 7.591742,1.746 l -2.353236,5.868 c -0.968594,-0.4196 -1.862144,-0.7512 -2.680642,-0.9948 -0.818532,-0.2574 -1.671152,-0.3858 -2.557864,-0.3858 -1.295998,0 -2.29868,0.5008 -3.008046,1.5026 -0.709394,1.0016 -1.064082,2.4162 -1.064074,4.2434 -8e-6,3.682 1.371004,5.523 4.113048,5.523 2.346396,0 4.597312,-0.6768 6.752762,-2.0304 l 0,6.3146 C 86.631828,43.3232 84.155818,44 81.263742,44" fill="#ffffff"/>
  <use transform="matrix(2,0,0,2,-7.999994,-2041.1304)" height="372.05" width="524.41" xlink:href="#1" fill="#ffffff"/>
  <path d="m 132.65556,32.0408 c -2e-5,3.763 -1.02317,6.7004 -3.06944,8.812 C 127.55345,42.951 124.70229,44 121.03263,44 c -3.51964,0 -6.32305,-1.076 -8.41026,-3.2284 -2.07358,-2.1522 -3.11037,-5.0626 -3.11036,-8.7308 -1e-5,-3.7496 1.01632,-6.66 3.04897,-8.731 2.04628,-2.0846 4.91109,-3.1268 8.59442,-3.1268 2.27819,0 4.29038,0.4804 6.03656,1.4416 1.74615,0.961 3.08988,2.3418 4.03119,4.142 0.95492,1.7868 1.43239,3.8782 1.43241,6.2742 m -15.01978,0 c -1e-5,1.9762 0.26601,3.4854 0.79806,4.5278 0.53202,1.0288 1.42557,1.543 2.68064,1.543 1.2414,0 2.11448,-0.5142 2.61925,-1.543 0.51838,-1.0424 0.77757,-2.5516 0.77759,-4.5278 -2e-5,-1.963 -0.25921,-3.445 -0.77759,-4.4468 -0.51841,-1.0016 -1.40514,-1.5024 -2.66018,-1.5024 -1.22778,0 -2.10769,0.5008 -2.63971,1.5024 -0.53205,0.9882 -0.79807,2.4704 -0.79806,4.4468" fill="#ffffff"/>
  <use transform="matrix(2,0,0,2,-7.999994,-2041.1304)" height="372.05" width="524.41" xlink:href="#2" fill="#ffffff"/>
  <path d="m 156.00001,43.594 -8,0 0,-31.594 8,0 0,31.594" fill="#ffffff"/>
  <use transform="matrix(2,0,0,2,-7.999994,-2041.1304)" height="372.05" width="524.41" xlink:href="#3" fill="#ffffff"/>
  <path d="m 196.52521,43.594 -0.5051,-3.4924 -0.1616,0 c -1.10446,1.4212 -2.24258,2.4298 -3.41436,3.0254 -1.15832,0.582 -2.53215,0.873 -4.12144,0.873 -2.15503,0 -3.8319,-0.555 -5.03061,-1.6648 -1.19873,-1.1102 -1.79809,-2.6464 -1.79809,-4.6094 0,-2.1522 0.88895,-3.824 2.66683,-5.015 1.79135,-1.1912 4.37736,-1.8206 7.75805,-1.8884 l 4.18204,-0.122 0,-1.462 c -2e-5,-2.098 -0.42428,-3.6818 -1.2728,-4.7512 -0.84854,-1.0694 -2.21564,-1.6042 -4.10124,-1.6042 -2.0338,0 -4.14167,0.5686 -6.32362,1.7056 l -0.74751,-1.746 c 2.41092,-1.1372 4.7949,-1.7056 7.15193,-1.7056 2.4109,0 4.209,0.6292 5.39428,1.8884 1.1987,1.2588 1.79806,3.2214 1.79808,5.888 l 0,14.6802 -1.47484,0 m -8.08127,-1.4212 c 2.34353,0 4.18877,-0.6702 5.53567,-2.0102 1.36032,-1.3536 2.0405,-3.2284 2.04052,-5.6244 l 0,-2.1726 -3.8386,0.162 c -3.08437,0.15 -5.28653,0.6362 -6.60645,1.4618 -1.30649,0.8124 -1.95974,2.0846 -1.95972,3.8174 -2e-5,1.3808 0.41752,2.4568 1.25259,3.2284 0.84853,0.758 2.04052,1.137 3.57599,1.137" fill="#ffffff"/>
  <use transform="matrix(2,0,0,2,-7.999994,-2041.1304)" height="372.05" width="524.41" xlink:href="#4" fill="#ffffff"/>
  <path d="m 221.95971,33.9086 11.2128,-12.3856 2.42436,0 -8.64696,9.4212 9.39448,12.6498 -2.40418,0 -8.34392,-11.1472 -3.59618,3.2894 0,7.8578 -2.0001,0 0,-31.594 2.0001,0 0,15.8376 -0.1414,6.071 0.1012,0" fill="#ffffff"/>
 </g>
 <g>
  <use transform="matrix(2,0,0,2,-7.999994,-2040.7244)" height="372.05" width="524.41" xlink:href="#5"/>
  <path d="m 0,23.9996 0,8 40,0 0,-8 z" fill="#ffffff"/>
  <use transform="matrix(2,0,0,2,-7.999994,-2040.7244)" height="372.05" width="524.41" xlink:href="#6" fill="#ffffff"/>
 </g>
 <g transform="translate(7.99999,0)" fill="#ffffff">
  <path d="m 258.68399,43.648437 -16.08398,0 0,-1.546875 6.83789,-7.136718 c 1.92186,-1.992177 3.26952,-3.515613 4.04297,-4.570313 0.77342,-1.054673 1.34178,-2.062484 1.70507,-3.023437 0.36327,-0.960921 0.54491,-1.968732 0.54493,-3.023438 -2e-5,-1.535135 -0.50393,-2.783181 -1.51172,-3.74414 -1.00783,-0.960914 -2.31447,-1.441382 -3.91993,-1.441407 -2.14453,2.5e-5 -4.19531,0.779321 -6.15234,2.337891 l -0.94922,-1.212891 c 2.14453,-1.804662 4.52343,-2.707005 7.13672,-2.707031 2.23827,2.6e-5 3.99608,0.597682 5.27344,1.792969 1.28904,1.195335 1.93358,2.841818 1.93359,4.939453 -10e-6,1.699236 -0.43361,3.345719 -1.30078,4.939453 -0.85548,1.582044 -2.42579,3.539073 -4.71094,5.871094 l -6.59179,6.767578 0,0.07031 13.74609,0 0,1.6875"/>
  <path d="m 263.99258,42.277344 c 0,-1.148435 0.46875,-1.722653 1.40625,-1.722657 0.96094,4e-6 1.4414,0.574222 1.44141,1.722657 C 266.84023,43.425781 266.35977,44 265.39883,44 c -0.9375,0 -1.40625,-0.574219 -1.40625,-1.722656"/>
  <path d="m 288.26797,30.728516 c -10e-6,4.511727 -0.69142,7.851567 -2.07421,10.019531 C 284.82265,42.916016 282.74257,44 279.95352,44 c -2.6836,0 -4.72266,-1.11328 -6.11719,-3.339844 -1.39453,-2.238276 -2.09179,-5.548819 -2.09179,-9.93164 0,-4.476545 0.67382,-7.792948 2.02148,-9.949219 1.35937,-2.156225 3.42187,-3.234349 6.1875,-3.234375 2.70702,2.6e-5 4.76952,1.119165 6.1875,3.357422 1.41795,2.226583 2.12694,5.50197 2.12695,9.826172 m -14.625,0 c 0,3.984384 0.52148,6.931646 1.56446,8.841796 1.04296,1.89844 2.62499,2.847658 4.74609,2.847657 2.21483,10e-7 3.82616,-0.984373 4.83399,-2.953125 1.01951,-1.968744 1.52928,-4.880851 1.52929,-8.736328 -10e-6,-3.796859 -0.50978,-6.679668 -1.52929,-8.648438 -1.00783,-1.968726 -2.61916,-2.9531 -4.83399,-2.953125 -2.21485,2.5e-5 -3.82032,0.984399 -4.8164,2.953125 -0.9961,1.96877 -1.49415,4.851579 -1.49415,8.648438"/>
 </g>
 <text x="301.21" y="15.07" fill="#ffffff" font-family="Open Sans" word-spacing="0" line-height="125%" font-weight="300" letter-spacing="0" font-size="24"><tspan x="301.21" y="15.07"/>
 </text>
 <g fill="#ffffff">
  <path d="m 303.98938,12.31225 c -0.5573,0 -1.06771,-0.101562 -1.53125,-0.304687 -0.45834,-0.208333 -0.84375,-0.526041 -1.15625,-0.953125 l -0.0937,0 c 0.0625,0.5 0.0937,0.973958 0.0937,1.421875 l 0,3.523437 -1.29688,0 0,-12.4062499 1.05469,0 0.17969,1.171875 0.0625,0 c 0.33333,-0.4687421 0.72135,-0.8072834 1.16406,-1.015625 0.44271,-0.2083247 0.95052,-0.3124912 1.52344,-0.3125 1.13541,8.8e-6 2.01041,0.3880292 2.625,1.1640625 0.61978,0.7760485 0.92968,1.8645891 0.92969,3.265625 -10e-6,1.4062529 -0.31512,2.5000014 -0.94532,3.2812504 -0.625,0.776042 -1.49479,1.164062 -2.60937,1.164062 m -0.1875,-7.7734374 c -0.875,7.7e-6 -1.50782,0.2421949 -1.89844,0.7265625 -0.39063,0.4843814 -0.59115,1.255214 -0.60156,2.3125 l 0,0.2890625 c 0,1.2031281 0.20052,2.0651064 0.60156,2.5859374 0.40104,0.515626 1.04427,0.773439 1.92969,0.773438 0.73958,1e-6 1.3177,-0.299478 1.73437,-0.898438 0.42187,-0.5989558 0.63281,-1.4244758 0.63282,-2.4765624 -10e-6,-1.0677029 -0.21095,-1.8854104 -0.63282,-2.453125 -0.41667,-0.5729093 -1.00521,-0.8593673 -1.76562,-0.859375"/>
  <path d="m 313.72375,3.4372501 c 0.38021,8.8e-6 0.72135,0.031259 1.02344,0.09375 l -0.17969,1.203125 c -0.35417,-0.078118 -0.66667,-0.1171799 -0.9375,-0.1171875 -0.69271,7.6e-6 -1.28646,0.2812573 -1.78125,0.84375 -0.48958,0.5625062 -0.73437,1.2630263 -0.73437,2.1015625 l 0,4.5937499 -1.29688,0 0,-8.5624999 1.07032,0 0.14843,1.5859375 0.0625,0 c 0.31771,-0.5572841 0.70052,-0.9869712 1.14844,-1.2890625 0.44791,-0.3020747 0.9401,-0.4531162 1.47656,-0.453125"/>
  <path d="m 319.96594,12.31225 c -1.26563,0 -2.26563,-0.385416 -3,-1.15625 -0.72917,-0.770831 -1.09375,-1.8411429 -1.09375,-3.2109374 0,-1.3802027 0.33854,-2.4765558 1.01563,-3.2890625 0.68229,-0.8124917 1.59635,-1.2187412 2.74218,-1.21875 1.07292,8.8e-6 1.92187,0.3541751 2.54688,1.0625 0.62499,0.703132 0.93749,1.6328186 0.9375,2.7890625 l 0,0.8203125 -5.89844,0 c 0.026,1.0052114 0.27865,1.7682315 0.75781,2.2890629 0.48438,0.520834 1.16406,0.781251 2.03907,0.78125 0.92187,1e-6 1.83332,-0.192708 2.73437,-0.578125 l 0,1.15625 c -0.45834,0.197917 -0.89323,0.338541 -1.30469,0.421875 -0.40625,0.08854 -0.89844,0.132812 -1.47656,0.132812 m -0.35156,-7.7890624 c -0.6875,7.7e-6 -1.23698,0.2239658 -1.64844,0.671875 -0.40625,0.4479232 -0.64583,1.0677143 -0.71875,1.859375 l 4.47656,0 c 0,-0.8177024 -0.18229,-1.4427018 -0.54687,-1.875 -0.36459,-0.4374925 -0.88542,-0.6562423 -1.5625,-0.65625"/>
  <path d="m 327.1925,12.156 -3.25,-8.5624999 1.39063,0 1.84375,5.078125 c 0.41666,1.1875023 0.66145,1.9583349 0.73437,2.3124999 l 0.0625,0 c 0.0573,-0.27604 0.23698,-0.846352 0.53907,-1.7109374 0.30728,-0.8697879 0.99218,-2.7630152 2.05468,-5.6796875 l 1.39063,0 -3.25,8.5624999 -1.51563,0"/>
  <path d="m 334.64563,12.156 -1.29688,0 0,-8.5624999 1.29688,0 0,8.5624999 M 333.23938,1.2731876 c 0,-0.29686378 0.0729,-0.5130094 0.21875,-0.64843746 0.14583,-0.14061333 0.32812,-0.21092576 0.54687,-0.2109375 0.20834,1.174e-5 0.38802,0.0703242 0.53907,0.2109375 0.15104,0.14063639 0.22656,0.35678201 0.22656,0.64843746 0,0.2916773 -0.0755,0.5104271 -0.22656,0.65625 -0.15105,0.1406351 -0.33073,0.2109476 -0.53907,0.2109375 -0.21875,1.01e-5 -0.40104,-0.070302 -0.54687,-0.2109375 -0.14583,-0.1458229 -0.21875,-0.3645727 -0.21875,-0.65625"/>
  <path d="m 341.02844,12.31225 c -1.26563,0 -2.26563,-0.385416 -3,-1.15625 -0.72917,-0.770831 -1.09375,-1.8411429 -1.09375,-3.2109374 0,-1.3802027 0.33854,-2.4765558 1.01563,-3.2890625 0.68229,-0.8124917 1.59635,-1.2187412 2.74218,-1.21875 1.07292,8.8e-6 1.92187,0.3541751 2.54688,1.0625 0.62499,0.703132 0.93749,1.6328186 0.9375,2.7890625 l 0,0.8203125 -5.89844,0 c 0.026,1.0052114 0.27865,1.7682315 0.75781,2.2890629 0.48438,0.520834 1.16406,0.781251 2.03907,0.78125 0.92187,1e-6 1.83332,-0.192708 2.73437,-0.578125 l 0,1.15625 c -0.45834,0.197917 -0.89323,0.338541 -1.30469,0.421875 -0.40625,0.08854 -0.89844,0.132812 -1.47656,0.132812 m -0.35156,-7.7890624 c -0.6875,7.7e-6 -1.23698,0.2239658 -1.64844,0.671875 -0.40625,0.4479232 -0.64583,1.0677143 -0.71875,1.859375 l 4.47656,0 c 0,-0.8177024 -0.18229,-1.4427018 -0.54687,-1.875 -0.36459,-0.4374925 -0.88542,-0.6562423 -1.5625,-0.65625"/>
  <path d="m 353.37219,12.156 -1.57031,-5.0234374 c -0.099,-0.3072863 -0.28386,-1.0052023 -0.55469,-2.09375 l -0.0625,0 c -0.20834,0.9114646 -0.39063,1.6145889 -0.54687,2.109375 l -1.61719,5.0078124 -1.5,0 -2.33594,-8.5624999 1.35938,0 c 0.55208,2.1510481 0.97135,3.7890673 1.25781,4.9140625 0.29166,1.1250026 0.45833,1.8828144 0.5,2.2734374 l 0.0625,0 c 0.0573,-0.296873 0.14843,-0.679685 0.27344,-1.1484374 0.1302,-0.4739553 0.24218,-0.8489549 0.33593,-1.125 l 1.57032,-4.9140625 1.40625,0 1.53125,4.9140625 c 0.29166,0.8958361 0.48957,1.6484394 0.59375,2.2578124 l 0.0625,0 c 0.0208,-0.187498 0.0755,-0.47656 0.16406,-0.8671874 0.0937,-0.3906223 0.63801,-2.4921827 1.63281,-6.3046875 l 1.34375,0 -2.36719,8.5624999 -1.53906,0"/>
 </g>
</svg>
