<?xml version="1.0" standalone="no"?>
<!DOCTYPE svg PUBLIC "-//W3C//DTD SVG 1.1//EN" "http://www.w3.org/Graphics/SVG/1.1/DTD/svg11.dtd">
<svg width="100%" height="100%" viewBox="0 0 160 160" version="1.1" xmlns="http://www.w3.org/2000/svg" xmlns:xlink="http://www.w3.org/1999/xlink" xml:space="preserve" style="fill-rule:evenodd;clip-rule:evenodd;stroke-linecap:round;stroke-linejoin:round;stroke-miterlimit:10;">
    <g id="Layer 1">
        <path d="M115.404,90.1919L115.462,90.1915L115.522,90.1905L115.581,90.1889L115.641,90.1865L115.7,90.1839L115.76,90.1803L115.821,90.1761L115.881,90.1711L115.942,90.1659L116.003,90.1599L116.065,90.1529L116.126,90.1455L116.188,90.1371L116.25,90.1281L116.312,90.1187L116.375,90.1083L116.437,90.0973L116.5,90.0857L116.564,90.0733L116.628,90.0599L116.691,90.0463L116.756,90.0315L116.82,90.0157L116.885,89.9997L116.95,89.9827L117.015,89.9651L117.08,89.9467L117.146,89.9273L117.212,89.9071L117.279,89.8865L117.345,89.8647L117.412,89.8423L117.479,89.8189L117.547,89.7949L117.614,89.7699L117.682,89.7441L117.75,89.7173L117.819,89.6897L117.887,89.6613L117.956,89.6321L118.026,89.6017L118.095,89.5707L118.165,89.5389L118.235,89.5059L118.305,89.4721L118.376,89.4377L118.446,89.4019L118.517,89.3655L118.589,89.3277L118.66,89.2893L118.732,89.2499L118.804,89.2095L118.876,89.1683L118.949,89.1259L119.021,89.0825L119.094,89.0383L119.168,88.9929L119.241,88.9469L119.315,88.8993L119.388,88.8509L119.463,88.8015L119.537,88.7509L119.611,88.6995L119.686,88.6471L119.761,88.5935L119.836,88.5387L119.911,88.4833L119.987,88.4265L120.062,88.3687L120.138,88.3095L120.214,88.2495L120.291,88.1883L120.367,88.1261L120.444,88.0627L120.52,87.9981L120.597,87.9327L120.674,87.8657L120.752,87.7979L120.829,87.7287L120.906,87.6585L120.984,87.5875L121.062,87.5149L121.14,87.4411L121.218,87.3661L121.296,87.2901L121.374,87.2129L121.453,87.1343L121.531,87.0547L121.61,86.9739L121.689,86.8921L121.768,86.8085L121.847,86.7243L121.926,86.6383L122.005,86.5515L122.084,86.4633L122.164,86.3741L122.243,86.2831L122.323,86.1913L122.402,86.0981L122.482,86.0039L122.561,85.9079L122.641,85.8109L122.721,85.7127L122.801,85.6131L122.881,85.5125L122.961,85.4103L123.041,85.3071L123.121,85.2025L123.2,85.0965L123.269,85.0049L123.336,84.9131L123.404,84.8201L123.47,84.7267L123.537,84.6323L123.603,84.5371L123.668,84.4409L123.734,84.3441L123.799,84.2465L123.864,84.1479L123.928,84.0483L123.992,83.9477L124.055,83.8465L124.118,83.7441L124.181,83.6409L124.244,83.5367L124.306,83.4311L124.368,83.3251L124.429,83.2175L124.491,83.1093L124.551,82.9997L124.612,82.8893L124.673,82.7777L124.732,82.6649L124.792,82.5513L124.851,82.4359L124.91,82.3199L124.969,82.2027L125.028,82.0841L125.086,81.9641L125.144,81.8431L125.201,81.7211L125.258,81.5975L125.315,81.4729L125.372,81.3469L125.428,81.2195L125.485,81.0909L125.527,80.9923L125.524,80.9817L125.491,80.8627L125.458,80.7441L125.424,80.6257L125.389,80.5075L125.353,80.3895L125.316,80.2719L125.278,80.1543L125.239,80.0373L125.199,79.9187L125.18,79.8619L125.159,79.8033L125.139,79.7453L125.118,79.6871L125.097,79.6289L125.076,79.5707L125.054,79.5127L125.033,79.4551L125.011,79.3971L124.989,79.3393L124.966,79.2817L124.944,79.2239L124.921,79.1665L124.898,79.1089L124.875,79.0515L124.851,78.9941L124.828,78.9369L124.804,78.8793L124.78,78.8223L124.755,78.7655L124.731,78.7079L124.706,78.6511L124.681,78.5943L124.656,78.5375L124.63,78.4807L124.604,78.4239L124.578,78.3675L124.552,78.3109L124.526,78.2545L124.499,78.1981L124.472,78.1419L124.445,78.0857L124.417,78.0293L124.39,77.9735L124.362,77.9173L124.334,77.8611L124.306,77.8053L124.277,77.7499L124.249,77.6941L124.219,77.6383L124.19,77.5829L124.161,77.5273L124.131,77.4719L124.101,77.4167L124.071,77.3613L124.04,77.3061L124.01,77.2511L123.979,77.1963L123.948,77.1411L123.916,77.0863L123.885,77.0315L123.853,76.9767L123.821,76.9221L123.788,76.8677L123.756,76.8133L123.723,76.7587L123.69,76.7043L123.656,76.6501L123.623,76.5961L123.589,76.5419L123.555,76.4881L123.521,76.4343L123.486,76.3805L123.451,76.3267L123.416,76.2729L123.381,76.2195L123.345,76.1659L123.31,76.1125L123.273,76.0591L123.237,76.0059L123.201,75.9527L123.164,75.8997L123.114,75.8285L123.064,75.7579L123.014,75.6877L122.964,75.6187L122.915,75.5501L122.865,75.4819L122.815,75.4147L122.766,75.3483L122.717,75.2821L122.667,75.2169L122.618,75.1525L122.568,75.0887L122.519,75.0251L122.47,74.9627L122.421,74.9009L122.372,74.8393L122.323,74.7789L122.274,74.7187L122.226,74.6595L122.177,74.6007L122.128,74.5427L122.08,74.4855L122.031,74.4287L121.983,74.3725L121.934,74.3171L121.886,74.2623L121.838,74.2081L121.79,74.1543L121.742,74.1015L121.694,74.0493L121.646,73.9975L121.599,73.9465L121.551,73.8959L121.503,73.8463L121.456,73.7971L121.409,73.7487L121.361,73.7005L121.314,73.6531L121.267,73.6067L121.22,73.5601L121.174,73.5147L121.127,73.4699L121.08,73.4255L121.034,73.3817L120.987,73.3387L120.941,73.2961L120.895,73.2541L120.849,73.2127L120.803,73.1721L120.757,73.1317L120.712,73.0919L120.666,73.0533L120.621,73.0149L120.575,72.9767L120.53,72.9393L120.485,72.9025L120.44,72.8665L120.396,72.8307L120.351,72.7955L120.306,72.7611L120.262,72.7271L120.218,72.6937L120.174,72.6609L120.13,72.6285L120.086,72.5967L120.042,72.5653L119.998,72.5347L119.955,72.5045L119.912,72.4747L119.869,72.4457L119.826,72.4169L119.783,72.3889L119.74,72.3611L119.697,72.3341L119.655,72.3073L119.613,72.2813L119.571,72.2555L119.529,72.2305L119.487,72.2061L119.445,72.1817L119.404,72.1581L119.362,72.1349L119.321,72.1123L119.28,72.0901L119.239,72.0685L119.198,72.0471L119.158,72.0261L119.117,72.0057L119.077,71.9859L119.037,71.9665L118.997,71.9475L118.957,71.9287L118.917,71.9107L118.878,71.8931L118.839,71.8757L118.799,71.8589L118.76,71.8425L118.721,71.8265L118.682,71.8109L118.644,71.7957L118.605,71.7811L118.567,71.7667L118.529,71.7527L118.491,71.7389L118.453,71.7259L118.415,71.7133L118.377,71.7009L118.34,71.6889L118.302,71.6771L118.265,71.6657L118.228,71.6551L118.191,71.6443L118.154,71.6343L118.117,71.6247L118.081,71.6153L118.044,71.6059L118.008,71.5973L117.972,71.5889L117.936,71.5809L117.899,71.5735L117.864,71.5661L117.828,71.5591L117.792,71.5525L117.757,71.5461L117.721,71.5401L117.686,71.5345L117.651,71.5291L117.615,71.5241L117.58,71.5195L117.545,71.5151L117.51,71.5111L117.476,71.5071L117.441,71.5037L117.406,71.5007L117.372,71.4977L117.337,71.4953L117.303,71.4931L117.268,71.4911L117.234,71.4893L117.2,71.4879L117.166,71.4869L117.132,71.4863L117.098,71.4859L117.064,71.4857L117.03,71.4859L116.996,71.4863L116.962,71.4869L116.929,71.4879L116.895,71.4893L116.861,71.4907L116.827,71.4927L116.794,71.4947L116.76,71.4971L116.727,71.4997L116.693,71.5027L116.66,71.5061L116.626,71.5097L116.593,71.5133L116.559,71.5175L116.526,71.5217L116.492,71.5265L116.459,71.5315L116.425,71.5367L116.392,71.5421L116.359,71.5479L116.325,71.5541L116.292,71.5605L116.259,71.5669L116.225,71.5739L116.192,71.5809L116.159,71.5885L116.125,71.5963L116.092,71.6043L116.058,71.6127L116.025,71.6209L115.992,71.6301L115.958,71.6391L115.925,71.6485L115.892,71.6581L115.858,71.6681L115.825,71.6785L115.792,71.6891L115.758,71.6999L115.725,71.7109L115.691,71.7223L115.658,71.7339L115.624,71.7459L115.591,71.7583L115.557,71.7707L115.524,71.7837L115.49,71.7967L115.457,71.8101L115.423,71.8239L115.39,71.8379L115.356,71.8519L115.322,71.8667L115.289,71.8813L115.255,71.8967L115.222,71.9121L115.188,71.9277L115.154,71.9437L115.121,71.9599L115.087,71.9765L115.053,71.9933L115.02,72.0107L114.986,72.0281L114.953,72.0457L114.919,72.0637L114.885,72.0819L114.852,72.1005L114.818,72.1193L114.784,72.1387L114.751,72.1581L114.717,72.1777L114.683,72.1977L114.649,72.2181L114.616,72.2385L114.582,72.2595L114.549,72.2807L114.515,72.3021L114.482,72.3237L114.448,72.3459L114.414,72.3681L114.381,72.3905L114.347,72.4137L114.314,72.4367L114.28,72.4601L114.246,72.4839L114.213,72.5079L114.179,72.5319L114.146,72.5567L114.112,72.5813L114.079,72.6065L114.046,72.6319L114.012,72.6575L113.979,72.6837L113.946,72.7097L113.913,72.7361L113.879,72.7629L113.846,72.7899L113.813,72.8173L113.78,72.8447L113.747,72.8727L113.714,72.9009L113.681,72.9293L113.648,72.9577L113.615,72.9867L113.582,73.0159L113.549,73.0453L113.516,73.0749L113.484,73.1047L113.451,73.1351L113.418,73.1655L113.386,73.1963L113.353,73.2269L113.321,73.2585L113.288,73.2899L113.256,73.3215L113.224,73.3537L113.192,73.3857L113.159,73.4181L113.127,73.4509L113.095,73.4839L113.063,73.5171L113.031,73.5505L113.001,73.5829L112.936,73.6523L112.873,73.7213L112.81,73.7911L112.747,73.8623L112.685,73.9341L112.623,74.0067L112.561,74.0801L112.5,74.1547L112.439,74.2299L112.379,74.3061L112.319,74.3829L112.259,74.4607L112.2,74.5395L112.141,74.6187L112.082,74.6989L112.024,74.7799L111.966,74.8617L111.909,74.9439L111.852,75.0271L111.796,75.1111L111.74,75.1955L111.684,75.2811L111.629,75.3669L111.575,75.4535L111.521,75.5407L111.468,75.6287L111.414,75.7171L111.362,75.8061L111.31,75.8959L111.259,75.9861L111.208,76.0771L111.157,76.1683L111.108,76.2603L111.058,76.3527L111.01,76.4457L110.962,76.5389L110.914,76.6329L110.867,76.7271L110.821,76.8219L110.775,76.9171L110.73,77.0127L110.685,77.1087L110.641,77.2053L110.598,77.3019L110.555,77.3991L110.513,77.4967L110.471,77.5943L110.43,77.6925L110.39,77.7907L110.351,77.8897L110.312,77.9885L110.274,78.0877L110.236,78.1871L110.199,78.2869L110.163,78.3869L110.128,78.4867L110.093,78.5871L110.058,78.6873L110.025,78.7879L109.992,78.8887L109.96,78.9893L109.929,79.0903L109.898,79.1911L109.868,79.2925L109.839,79.3937L109.81,79.4947L109.783,79.5959L109.755,79.6971L109.729,79.7981L109.704,79.8993L109.679,80.0005L109.655,80.1015L109.632,80.2023L109.609,80.3037L109.587,80.4041L109.566,80.5051L109.546,80.6057L109.526,80.7059L109.508,80.8063L109.49,80.9061L109.473,81.0061L109.456,81.1059L109.441,81.2051L109.426,81.3045L109.412,81.4033L109.399,81.5023L109.386,81.6005L109.375,81.6985L109.364,81.7963L109.354,81.8939L109.345,81.9909L109.336,82.0873L109.329,82.1837L109.322,82.2795L109.316,82.3751L109.311,82.4701L109.306,82.5645L109.303,82.6589L109.3,82.7523L109.298,82.8453L109.297,82.9381L109.296,83.0301L109.297,83.1217L109.299,83.2125L109.301,83.3027L109.304,83.3927L109.307,83.4815L109.312,83.5701L109.317,83.6579L109.323,83.7471L109.327,83.7883L109.33,83.8313L109.334,83.8745L109.338,83.9173L109.342,83.9597L109.346,84.0021L109.351,84.0445L109.361,84.1281L109.366,84.1699L109.371,84.2117L109.377,84.2527L109.383,84.2939L109.388,84.3347L109.394,84.3755L109.401,84.4161L109.407,84.4563L109.414,84.4963L109.421,84.5361L109.428,84.5759L109.435,84.6153L109.443,84.6547L109.45,84.6939L109.458,84.7327L109.466,84.7711L109.474,84.8085L109.488,84.8729L109.503,84.9365L109.518,84.9997L109.534,85.0625L109.55,85.1249L109.566,85.1875L109.583,85.2499L109.601,85.3117L109.618,85.3735L109.637,85.4351L109.656,85.4965L109.675,85.5573L109.695,85.6181L109.715,85.6789L109.757,85.7993L109.779,85.8591L109.801,85.9185L109.824,85.9781L109.847,86.0369L109.871,86.0957L109.894,86.1541L109.919,86.2123L109.944,86.2701L109.969,86.3279L109.995,86.3851L110.021,86.4423L110.047,86.4987L110.075,86.5551L110.102,86.6113L110.13,86.6671L110.158,86.7223L110.187,86.7773L110.216,86.8325L110.245,86.8867L110.275,86.9409L110.305,86.9947L110.336,87.0481L110.367,87.1013L110.399,87.1541L110.43,87.2065L110.463,87.2585L110.495,87.3103L110.528,87.3615L110.561,87.4123L110.595,87.4631L110.629,87.5133L110.698,87.6129L110.734,87.6617L110.769,87.7103L110.805,87.7589L110.841,87.8067L110.878,87.8541L110.915,87.9013L110.952,87.9479L110.989,87.9941L111.027,88.0403L111.066,88.0857L111.104,88.1307L111.143,88.1753L111.182,88.2197L111.222,88.2635L111.262,88.3065L111.302,88.3497L111.342,88.3921L111.383,88.4341L111.424,88.4757L111.465,88.5167L111.507,88.5575L111.549,88.5979L111.591,88.6377L111.634,88.6771L111.676,88.7159L111.719,88.7547L111.762,88.7925L111.806,88.8299L111.85,88.8673L111.894,88.9037L111.938,88.9397L111.983,88.9755L112.028,89.0107L112.073,89.0453L112.118,89.0795L112.164,89.1133L112.21,89.1467L112.256,89.1793L112.302,89.2117L112.348,89.2435L112.395,89.2749L112.442,89.3057L112.489,89.3357L112.537,89.3659L112.585,89.3949L112.633,89.4239L112.681,89.4521L112.729,89.4801L112.777,89.5071L112.826,89.5339L112.875,89.5603L112.925,89.5863L112.974,89.6115L113.023,89.6361L113.073,89.6605L113.123,89.6843L113.173,89.7073L113.224,89.7301L113.274,89.7525L113.325,89.7739L113.376,89.7953L113.427,89.8157L113.479,89.8357L113.53,89.8553L113.582,89.8745L113.634,89.8929L113.686,89.9109L113.739,89.9283L113.791,89.9453L113.844,89.9617L113.897,89.9773L113.95,89.9927L114.003,90.0075L114.057,90.0215L114.111,90.0351L114.165,90.0483L114.219,90.0609L114.273,90.0727L114.328,90.0843L114.382,90.0949L114.437,90.1053L114.492,90.1151L114.548,90.1245L114.603,90.1327L114.659,90.1407L114.715,90.1485L114.771,90.1551L114.828,90.1615L114.884,90.1671L114.941,90.1725L114.998,90.1769L115.055,90.1809L115.113,90.1843L115.17,90.1869L115.228,90.1893L115.287,90.1905L115.345,90.1915L115.404,90.1919ZM108.37,112.277L108.306,112.277L108.243,112.277L108.178,112.276L108.114,112.275L108.05,112.274L107.986,112.272L107.922,112.27L107.858,112.268L107.794,112.265L107.73,112.262L107.666,112.259L107.601,112.256L107.537,112.252L107.473,112.248L107.409,112.243L107.345,112.238L107.281,112.233L107.216,112.228L107.152,112.222L107.088,112.216L107.024,112.209L106.96,112.202L106.896,112.195L106.831,112.188L106.767,112.18L106.703,112.172L106.639,112.163L106.575,112.155L106.511,112.146L106.447,112.136L106.383,112.127L106.319,112.117L106.254,112.106L106.191,112.095L106.127,112.084L106.063,112.073L105.999,112.061L105.935,112.049L105.871,112.036L105.807,112.024L105.743,112.011L105.679,111.997L105.615,111.984L105.551,111.97L105.488,111.955L105.423,111.94L105.36,111.925L105.296,111.91L105.232,111.894L105.169,111.878L105.105,111.861L105.042,111.844L104.978,111.827L104.914,111.81L104.851,111.792L104.787,111.774L104.724,111.755L104.661,111.736L104.597,111.717L104.534,111.698L104.471,111.677L104.408,111.657L104.344,111.637L104.281,111.616L104.218,111.594L104.155,111.573L104.092,111.551L104.029,111.528L103.967,111.506L103.904,111.483L103.841,111.459L103.778,111.436L103.716,111.412L103.653,111.387L103.59,111.362L103.528,111.337L103.466,111.312L103.403,111.286L103.341,111.26L103.279,111.233L103.216,111.206L103.154,111.179L103.092,111.152L103.03,111.124L102.968,111.095L102.906,111.067L102.844,111.038L102.783,111.008L102.721,110.979L102.66,110.949L102.598,110.919L102.536,110.888L102.475,110.857L102.414,110.825L102.353,110.794L102.291,110.762L102.23,110.729L102.169,110.696L102.108,110.663L102.048,110.63L101.987,110.596L101.926,110.561L101.866,110.527L101.805,110.492L101.744,110.457L101.684,110.421L101.624,110.385L101.564,110.349L101.504,110.312L101.444,110.275L101.384,110.238L101.324,110.2L101.264,110.162L101.204,110.124L101.144,110.085L101.085,110.046L101.026,110.006L100.966,109.967L100.907,109.926L100.848,109.886L100.789,109.845L100.73,109.804L100.671,109.762L100.612,109.72L100.554,109.678L100.495,109.635L100.436,109.592L100.378,109.549L100.32,109.505L100.261,109.461L100.203,109.417L100.145,109.372L100.087,109.327L100.029,109.282L99.9717,109.236L99.9141,109.19L99.8567,109.143L99.7991,109.096L99.7417,109.049L99.6847,109.002L99.6273,108.953L99.5705,108.905L99.5135,108.856L99.4567,108.808L99.3997,108.758L99.3431,108.709L99.2869,108.659L99.2301,108.608L99.1739,108.557L99.1179,108.507L99.0617,108.455L99.0057,108.403L98.9501,108.351L98.8941,108.298L98.8385,108.246L98.7827,108.192L98.7275,108.139L98.6719,108.085L98.6165,108.031L98.5617,107.976L98.5067,107.921L98.4517,107.866L98.3967,107.81L98.3421,107.754L98.2875,107.698L98.2329,107.641L98.1787,107.584L98.1243,107.526L98.0701,107.469L98.0161,107.411L97.9623,107.352L97.9083,107.293L97.8547,107.234L97.8007,107.174L97.7475,107.114L97.6939,107.054L97.6407,106.994L97.5877,106.932L97.5345,106.871L97.4815,106.809L97.4287,106.747L97.3761,106.685L97.3235,106.622L97.2709,106.559L97.2187,106.495L97.1665,106.431L97.1143,106.367L97.0621,106.302L97.0101,106.237L96.9585,106.172L96.9067,106.106L96.8551,106.04L96.8035,105.974L96.7523,105.907L96.7011,105.84L96.6499,105.772L96.5989,105.705L96.5481,105.636L96.4973,105.568L96.4467,105.499L96.3961,105.43L96.3457,105.36L96.2955,105.29L96.2453,105.219L96.1951,105.149L96.1451,105.077L96.0953,105.006L96.0455,104.934L95.9959,104.862L95.9463,104.789L95.8969,104.716L95.8477,104.643L95.7985,104.569L95.7497,104.495L95.7007,104.421L95.6519,104.346L95.6035,104.271L95.5545,104.195L95.5065,104.119L95.4579,104.043L95.4097,103.966L95.3615,103.889L95.3137,103.812L95.2659,103.734L95.2181,103.656L95.1707,103.577L95.1231,103.498L95.0759,103.419L95.0285,103.34L94.9813,103.26L94.9345,103.179L94.8877,103.098L94.8409,103.017L94.7945,102.936L94.7479,102.854L94.7015,102.772L94.6551,102.689L94.6089,102.606L94.5631,102.522L94.5173,102.438L94.4715,102.354L94.4257,102.27L94.3803,102.185L94.3349,102.1L94.2897,102.014L94.2445,101.928L94.1995,101.841L94.1543,101.754L94.1099,101.667L94.0651,101.58L94.0207,101.491L93.9763,101.403L93.9319,101.314L93.8877,101.225L93.8437,101.136L93.7999,101.046L93.7561,100.955L93.7123,100.865L93.6689,100.774L93.6255,100.682L93.5825,100.59L93.5391,100.498L93.4963,100.405L93.4533,100.313L93.4105,100.219L93.3677,100.125L93.3253,100.031L93.2829,99.9361L93.2409,99.8409L93.1989,99.7457L93.1567,99.6497L93.1151,99.5539L93.0733,99.4573L93.0315,99.3601L92.9903,99.2629L92.9489,99.1649L92.9075,99.0667L92.8665,98.9681L92.8253,98.8691L92.7847,98.7699L92.7439,98.6701L92.7035,98.5697L92.6629,98.4691L92.6229,98.3683L92.5825,98.2671L92.5425,98.1651L92.5027,98.0631L92.4627,97.9603L92.4235,97.8573L92.3837,97.7541L92.3443,97.6501L92.3053,97.5459L92.2661,97.4413L92.2271,97.3363L92.1883,97.2307L92.1497,97.1251L92.1111,97.0189L92.0727,96.9119L92.0343,96.8051L91.9963,96.6975L91.9583,96.5899L91.9203,96.4813L91.8827,96.3727L91.8451,96.2633L91.8075,96.1541L91.7697,96.0431L91.6959,95.8229L91.6223,95.6001L91.5493,95.3755L91.4767,95.1493L91.4045,94.9217L91.3333,94.6921L91.2623,94.4609L91.1917,94.2279L91.1233,93.9971L91.0805,93.8213L91.0561,93.6425L91.0503,93.4621L91.0633,93.2819L91.0945,93.1039L91.1435,92.9301L91.2105,92.7619L91.2943,92.6013L91.3943,92.4501L91.5093,92.3095L91.6379,92.1809L91.7793,92.0659L91.9315,91.9657L92.0933,91.8811L92.2633,91.8129L92.4391,91.7621L92.6191,91.7293L92.8019,91.7143L92.9851,91.7177L93.1669,91.7395L93.3457,91.7791L93.5197,91.8367L93.6867,91.9109L93.8451,92.0015L93.9935,92.1073L94.1303,92.2277L94.2541,92.3607L94.3633,92.5057L94.4573,92.6607L94.5349,92.8241L94.5953,92.9945L94.6619,93.2185L94.7279,93.4369L94.7945,93.6539L94.8613,93.8687L94.9287,94.0823L94.9967,94.2935L95.0647,94.5033L95.1337,94.7111L95.2031,94.9181L95.2377,95.0195L95.2723,95.1215L95.3073,95.2231L95.3425,95.3241L95.3779,95.4245L95.4131,95.5249L95.4485,95.6247L95.4841,95.7241L95.5197,95.8229L95.5553,95.9211L95.5913,96.0195L95.6271,96.1169L95.6631,96.2139L95.6991,96.3105L95.7353,96.4071L95.7717,96.5027L95.8083,96.5981L95.8447,96.6931L95.8813,96.7877L95.9183,96.8815L95.9549,96.9755L95.9919,97.0687L96.0287,97.1613L96.0657,97.2539L96.1031,97.3457L96.1403,97.4369L96.1777,97.5281L96.2153,97.6191L96.2531,97.7089L96.2907,97.7989L96.3283,97.8881L96.3663,97.9773L96.4423,98.1537L96.4803,98.2413L96.5187,98.3289L96.5569,98.4153L96.5953,98.5019L96.6339,98.5879L96.6727,98.6733L96.7113,98.7585L96.7499,98.8431L96.7887,98.9273L96.8277,99.0115L96.9057,99.1779L96.9449,99.2605L96.9839,99.3427L97.0237,99.4243L97.0631,99.5057L97.1023,99.5867L97.1421,99.6671L97.1817,99.7473L97.2611,99.9061L97.3011,99.9849L97.3411,100.064L97.3811,100.142L97.4213,100.219L97.5017,100.373L97.5419,100.45L97.5827,100.526L97.6231,100.601L97.6635,100.676L97.7041,100.751L97.7449,100.825L97.7859,100.899L97.8265,100.973L97.8673,101.046L97.9083,101.119L97.9493,101.191L97.9907,101.263L98.0317,101.335L98.1145,101.476L98.1555,101.547L98.1973,101.617L98.2387,101.686L98.2805,101.755L98.3219,101.824L98.3635,101.892L98.4053,101.96L98.4473,102.028L98.4891,102.095L98.5311,102.161L98.5731,102.228L98.6153,102.294L98.6573,102.359L98.6993,102.424L98.7417,102.489L98.7837,102.554L98.8261,102.618L98.8685,102.681L98.9109,102.745L98.9535,102.807L98.9961,102.87L99.0385,102.932L99.1241,103.055L99.1667,103.116L99.2095,103.176L99.2525,103.236L99.2953,103.296L99.3383,103.355L99.3811,103.414L99.4243,103.473L99.4673,103.531L99.5107,103.589L99.5537,103.646L99.5969,103.703L99.6403,103.76L99.6833,103.816L99.7267,103.872L99.7701,103.928L99.8137,103.983L99.8571,104.037L99.9007,104.092L99.9443,104.146L99.9877,104.2L100.031,104.253L100.075,104.306L100.119,104.359L100.162,104.411L100.206,104.463L100.25,104.514L100.294,104.565L100.338,104.616L100.382,104.666L100.426,104.716L100.47,104.766L100.513,104.815L100.558,104.864L100.602,104.913L100.646,104.961L100.69,105.009L100.734,105.056L100.778,105.103L100.822,105.15L100.867,105.197L100.911,105.243L100.955,105.289L100.999,105.334L101.044,105.379L101.088,105.424L101.132,105.468L101.177,105.512L101.221,105.556L101.266,105.599L101.354,105.684L101.399,105.726L101.444,105.768L101.488,105.81L101.532,105.851L101.577,105.892L101.622,105.933L101.666,105.973L101.711,106.012L101.756,106.052L101.8,106.091L101.845,106.13L101.89,106.168L101.934,106.207L101.979,106.245L102.024,106.282L102.068,106.319L102.113,106.356L102.158,106.393L102.203,106.429L102.247,106.465L102.292,106.5L102.337,106.535L102.382,106.57L102.472,106.639L102.516,106.673L102.562,106.707L102.606,106.74L102.651,106.773L102.696,106.806L102.741,106.838L102.786,106.87L102.831,106.902L102.876,106.933L102.921,106.964L102.966,106.995L103.011,107.026L103.055,107.056L103.146,107.115L103.19,107.145L103.236,107.173L103.28,107.202L103.325,107.23L103.371,107.258L103.415,107.286L103.46,107.314L103.505,107.341L103.55,107.368L103.595,107.394L103.641,107.421L103.686,107.446L103.731,107.472L103.776,107.497L103.821,107.522L103.866,107.547L103.911,107.572L103.956,107.596L104.001,107.62L104.046,107.644L104.091,107.667L104.136,107.69L104.181,107.713L104.226,107.736L104.272,107.758L104.317,107.78L104.362,107.802L104.407,107.823L104.452,107.844L104.497,107.865L104.587,107.906L104.632,107.926L104.678,107.946L104.723,107.965L104.768,107.984L104.813,108.003L104.858,108.022L104.903,108.04L104.948,108.058L104.994,108.077L105.039,108.094L105.084,108.111L105.129,108.128L105.174,108.145L105.22,108.162L105.265,108.178L105.31,108.194L105.355,108.21L105.4,108.226L105.446,108.241L105.491,108.256L105.536,108.271L105.581,108.285L105.627,108.299L105.672,108.313L105.717,108.327L105.762,108.341L105.853,108.367L105.898,108.38L105.989,108.404L106.034,108.416L106.08,108.428L106.125,108.439L106.17,108.451L106.216,108.462L106.261,108.473L106.307,108.483L106.352,108.494L106.398,108.504L106.443,108.513L106.489,108.523L106.579,108.541L106.625,108.55L106.67,108.559L106.716,108.567L106.762,108.575L106.807,108.583L106.853,108.59L106.898,108.598L106.99,108.612L107.035,108.619L107.127,108.632L107.172,108.638L107.218,108.643L107.264,108.649L107.309,108.654L107.355,108.659L107.401,108.664L107.447,108.669L107.492,108.673L107.538,108.677L107.584,108.681L107.63,108.685L107.676,108.688L107.722,108.691L107.768,108.694L107.813,108.697L107.859,108.7L107.905,108.702L107.951,108.704L107.997,108.706L108.043,108.708L108.09,108.709L108.135,108.71L108.181,108.711L108.228,108.712L108.274,108.712L108.32,108.713L108.412,108.713L108.458,108.712L108.505,108.712L108.551,108.711L108.597,108.71L108.643,108.708L108.69,108.707L108.736,108.705L108.782,108.703L108.829,108.701L108.875,108.699L108.922,108.696L108.968,108.693L109.014,108.69L109.061,108.687L109.108,108.683L109.154,108.68L109.2,108.676L109.247,108.672L109.293,108.667L109.34,108.663L109.387,108.658L109.433,108.653L109.48,108.648L109.526,108.642L109.573,108.636L109.62,108.63L109.667,108.624L109.713,108.618L109.758,108.612L109.854,108.597L109.947,108.583L110.041,108.567L110.135,108.551L110.229,108.534L110.323,108.515L110.416,108.496L110.51,108.477L110.604,108.456L110.699,108.434L110.793,108.412L110.887,108.388L110.981,108.364L111.076,108.339L111.17,108.313L111.265,108.287L111.359,108.259L111.453,108.231L111.548,108.202L111.642,108.171L111.737,108.14L111.832,108.109L111.926,108.076L112.021,108.042L112.116,108.008L112.21,107.973L112.305,107.937L112.399,107.9L112.494,107.863L112.589,107.824L112.683,107.785L112.778,107.745L112.873,107.704L112.967,107.662L113.062,107.62L113.156,107.576L113.251,107.532L113.345,107.487L113.44,107.441L113.534,107.395L113.628,107.347L113.723,107.299L113.817,107.25L113.911,107.2L114.005,107.15L114.099,107.099L114.193,107.047L114.287,106.994L114.381,106.94L114.474,106.886L114.568,106.83L114.662,106.774L114.755,106.717L114.848,106.66L114.941,106.602L115.034,106.543L115.127,106.483L115.22,106.422L115.313,106.361L115.405,106.299L115.498,106.237L115.59,106.173L115.682,106.109L115.774,106.044L115.866,105.978L115.958,105.912L116.05,105.845L116.141,105.777L116.232,105.709L116.323,105.639L116.414,105.569L116.505,105.499L116.595,105.428L116.685,105.355L116.776,105.283L116.865,105.209L116.955,105.135L117.045,105.061L117.134,104.985L117.223,104.909L117.312,104.832L117.4,104.755L117.489,104.677L117.577,104.599L117.665,104.519L117.752,104.439L117.84,104.358L117.927,104.277L118.014,104.195L118.101,104.113L118.187,104.029L118.273,103.946L118.359,103.861L118.445,103.776L118.53,103.691L118.615,103.605L118.7,103.518L118.785,103.431L118.869,103.342L118.953,103.254L119.036,103.165L119.119,103.075L119.203,102.985L119.285,102.894L119.367,102.802L119.449,102.711L119.531,102.618L119.613,102.525L119.694,102.431L119.774,102.337L119.854,102.242L119.935,102.147L120.014,102.051L120.094,101.955L120.173,101.858L120.251,101.761L120.329,101.663L120.407,101.565L120.485,101.466L120.562,101.366L120.639,101.266L120.715,101.166L120.791,101.065L120.867,100.964L120.942,100.862L121.017,100.76L121.091,100.657L121.165,100.554L121.239,100.45L121.312,100.346L121.385,100.241L121.457,100.136L121.529,100.031L121.601,99.9249L121.672,99.8185L121.742,99.7119L121.813,99.6047L121.882,99.4971L121.952,99.3891L122.021,99.2805L122.089,99.1719L122.157,99.0627L122.224,98.9531L122.292,98.8427L122.358,98.7325L122.424,98.6219L122.49,98.5107L122.555,98.3991L122.62,98.2871L122.684,98.1747L122.748,98.0621L122.811,97.9493L122.874,97.8359L122.936,97.7223L122.998,97.6081L123.06,97.4937L123.12,97.3791L123.181,97.2641L123.24,97.1485L123.3,97.0329L123.358,96.9169L123.417,96.8007L123.474,96.6841L123.531,96.5671L123.588,96.4501L123.644,96.3325L123.7,96.2149L123.755,96.0967L123.81,95.9783L123.864,95.8597L123.917,95.7411L123.97,95.6217L124.022,95.5025L124.074,95.3829L124.125,95.2629L124.176,95.1425L124.225,95.0223L124.275,94.9017L124.324,94.7807L124.372,94.6597L124.42,94.5383L124.467,94.4167L124.514,94.2951L124.56,94.1731L124.605,94.0511L124.65,93.9285L124.694,93.8063L124.738,93.6835L124.78,93.5607L124.823,93.4373L124.865,93.3143L124.906,93.1907L124.946,93.0671L124.986,92.9435L125.026,92.8195L125.064,92.6955L125.102,92.5711L125.14,92.4465L125.176,92.3223L125.213,92.1975L125.248,92.0729L125.283,91.9479L125.317,91.8227L125.351,91.6977L125.383,91.5723L125.416,91.4471L125.447,91.3217L125.478,91.1961L125.508,91.0705L125.538,90.9445L125.567,90.8187L125.595,90.6929L125.623,90.5669L125.65,90.4409L125.676,90.3145L125.701,90.1885L125.726,90.0623L125.75,89.9359L125.774,89.8097L125.797,89.6833L125.819,89.5567L125.84,89.4303L125.861,89.3037L125.881,89.1773L125.9,89.0507L125.919,88.9241L125.937,88.7977L125.954,88.6711L125.97,88.5445L125.986,88.4179L126.001,88.2915L126.015,88.1649L126.029,88.0383L126.042,87.9115L126.054,87.7853L126.065,87.6585L126.075,87.5323L126.085,87.4059L126.094,87.2793L126.098,87.2315L126.017,87.3377L125.925,87.4591L125.832,87.5791L125.739,87.6977L125.646,87.8153L125.553,87.9313L125.459,88.0465L125.366,88.1601L125.272,88.2727L125.178,88.3843L125.084,88.4943L124.99,88.6033L124.895,88.7113L124.801,88.8179L124.706,88.9231L124.611,89.0273L124.516,89.1303L124.421,89.2321L124.326,89.3327L124.23,89.4321L124.135,89.5303L124.039,89.6275L123.943,89.7231L123.847,89.8179L123.751,89.9115L123.655,90.0037L123.558,90.0949L123.462,90.1853L123.365,90.2741L123.268,90.3617L123.171,90.4483L123.074,90.5337L122.977,90.6179L122.879,90.7011L122.782,90.7831L122.684,90.8639L122.586,90.9435L122.488,91.0219L122.39,91.0995L122.292,91.1757L122.194,91.2509L122.096,91.3247L121.997,91.3975L121.899,91.4695L121.8,91.5399L121.701,91.6095L121.602,91.6779L121.503,91.7451L121.404,91.8113L121.305,91.8761L121.206,91.9399L121.106,92.0027L121.007,92.0643L120.907,92.1247L120.807,92.1841L120.708,92.2423L120.608,92.2995L120.508,92.3557L120.408,92.4105L120.308,92.4643L120.208,92.5171L120.107,92.5685L120.007,92.6193L119.907,92.6685L119.806,92.7169L119.706,92.7639L119.605,92.8101L119.505,92.8549L119.404,92.8987L119.303,92.9415L119.203,92.9831L119.102,93.0237L119.001,93.0631L118.901,93.1015L118.8,93.1385L118.699,93.1747L118.598,93.2097L118.498,93.2435L118.397,93.2763L118.296,93.3079L118.195,93.3387L118.095,93.3681L117.994,93.3965L117.893,93.4239L117.792,93.4503L117.692,93.4755L117.591,93.4995L117.491,93.5225L117.391,93.5443L117.29,93.5649L117.19,93.5847L117.09,93.6033L116.989,93.6211L116.89,93.6375L116.789,93.6529L116.69,93.6673L116.59,93.6803L116.49,93.6927L116.391,93.7037L116.291,93.7137L116.192,93.7227L116.093,93.7303L115.994,93.7373L115.896,93.7431L115.797,93.7477L115.699,93.7515L115.601,93.7541L115.503,93.7557L115.405,93.7565L115.307,93.7557L115.21,93.7545L115.113,93.7517L115.016,93.7481L114.919,93.7435L114.822,93.7381L114.726,93.7313L114.63,93.7237L114.535,93.7151L114.439,93.7053L114.344,93.6947L114.249,93.6833L114.155,93.6705L114.061,93.6569L113.967,93.6425L113.873,93.6267L113.78,93.6105L113.687,93.5931L113.594,93.5747L113.502,93.5553L113.41,93.5349L113.318,93.5139L113.227,93.4917L113.136,93.4687L113.046,93.4447L112.955,93.4197L112.866,93.3939L112.776,93.3671L112.687,93.3397L112.599,93.3113L112.51,93.2819L112.423,93.2515L112.335,93.2205L112.249,93.1887L112.162,93.1559L112.076,93.1221L111.99,93.0877L111.905,93.0523L111.82,93.0163L111.736,92.9795L111.652,92.9417L111.569,92.9029L111.486,92.8639L111.404,92.8237L111.322,92.7827L111.24,92.7409L111.159,92.6985L111.079,92.6553L110.999,92.6113L110.919,92.5665L110.84,92.5211L110.761,92.4745L110.683,92.4279L110.606,92.3801L110.529,92.3315L110.452,92.2825L110.376,92.2327L110.301,92.1821L110.226,92.1311L110.151,92.0789L110.077,92.0265L110.004,91.9733L109.931,91.9193L109.859,91.8647L109.787,91.8095L109.716,91.7535L109.645,91.6969L109.575,91.6399L109.505,91.5821L109.436,91.5235L109.368,91.4645L109.3,91.4049L109.232,91.3445L109.166,91.2837L109.099,91.2221L109.034,91.1599L108.968,91.0975L108.904,91.0343L108.84,90.9705L108.776,90.9061L108.713,90.8411L108.651,90.7757L108.589,90.7095L108.528,90.6431L108.467,90.5759L108.407,90.5083L108.348,90.4399L108.289,90.3713L108.231,90.3021L108.173,90.2323L108.116,90.1619L108.06,90.0909L108.004,90.0199L107.949,89.9479L107.894,89.8757L107.84,89.8029L107.787,89.7297L107.734,89.6559L107.682,89.5821L107.63,89.5071L107.579,89.4321L107.529,89.3565L107.479,89.2803L107.43,89.2037L107.381,89.1269L107.333,89.0497L107.286,88.9719L107.24,88.8937L107.193,88.8151L107.148,88.7359L107.104,88.6565L107.059,88.5765L107.016,88.4961L106.973,88.4155L106.931,88.3343L106.889,88.2527L106.848,88.1709L106.808,88.0887L106.769,88.0061L106.73,87.9229L106.691,87.8393L106.654,87.7559L106.617,87.6717L106.581,87.5871L106.545,87.5023L106.51,87.4169L106.476,87.3315L106.442,87.2455L106.41,87.1593L106.377,87.0729L106.346,86.9859L106.315,86.8983L106.285,86.8109L106.255,86.7233L106.226,86.6351L106.198,86.5465L106.171,86.4577L106.144,86.3687L106.118,86.2791L106.093,86.1897L106.068,86.0997L106.045,86.0095L106.021,85.9185L105.999,85.8281L105.977,85.7371L105.956,85.6455L105.936,85.5551L105.923,85.4959L105.912,85.4373L105.9,85.3785L105.888,85.3201L105.877,85.2617L105.866,85.2025L105.856,85.1439L105.845,85.0849L105.836,85.0257L105.826,84.9665L105.817,84.9075L105.808,84.8479L105.799,84.7885L105.791,84.7289L105.783,84.6695L105.775,84.6097L105.768,84.5501L105.761,84.4903L105.754,84.4303L105.748,84.3705L105.741,84.3103L105.736,84.2501L105.73,84.1899L105.725,84.1295L105.72,84.0693L105.715,84.0069L105.706,83.8879L105.699,83.7665L105.693,83.6449L105.688,83.5233L105.684,83.4013L105.681,83.2791L105.679,83.1563L105.679,83.0337L105.679,82.9107L105.68,82.7877L105.683,82.6645L105.687,82.5409L105.691,82.4175L105.697,82.2935L105.704,82.1695L105.711,82.0457L105.72,81.9213L105.73,81.7973L105.741,81.6727L105.753,81.5483L105.765,81.4237L105.779,81.2991L105.794,81.1741L105.81,81.0491L105.826,80.9245L105.844,80.7995L105.863,80.6745L105.882,80.5495L105.903,80.4245L105.924,80.2997L105.947,80.1743L105.97,80.0493L105.994,79.9243L106.019,79.7993L106.046,79.6743L106.073,79.5495L106.1,79.4247L106.129,79.2997L106.159,79.1751L106.19,79.0505L106.221,78.9259L106.253,78.8015L106.286,78.6773L106.321,78.5529L106.356,78.4289L106.392,78.3049L106.428,78.1813L106.465,78.0577L106.504,77.9343L106.543,77.8111L106.583,77.6881L106.624,77.5651L106.666,77.4425L106.708,77.3201L106.752,77.1983L106.796,77.0763L106.841,76.9547L106.887,76.8333L106.934,76.7121L106.981,76.5913L107.029,76.4707L107.078,76.3507L107.128,76.2309L107.179,76.1111L107.231,75.9919L107.283,75.8733L107.336,75.7547L107.39,75.6367L107.445,75.5187L107.5,75.4015L107.556,75.2847L107.613,75.1681L107.671,75.0519L107.73,74.9363L107.789,74.8213L107.849,74.7063L107.91,74.5921L107.972,74.4785L108.034,74.3651L108.097,74.2525L108.161,74.1403L108.226,74.0283L108.291,73.9173L108.358,73.8065L108.425,73.6965L108.493,73.5869L108.561,73.4779L108.63,73.3697L108.7,73.2621L108.771,73.1549L108.843,73.0483L108.915,72.9427L108.988,72.8373L109.062,72.7327L109.136,72.6291L109.212,72.5259L109.288,72.4233L109.365,72.3217L109.442,72.2205L109.521,72.1203L109.6,72.0207L109.68,71.9221L109.76,71.8241L109.842,71.7269L109.924,71.6303L110.007,71.5347L110.09,71.4403L110.175,71.3463L110.26,71.2531L110.345,71.1625L110.389,71.1151L110.432,71.0697L110.476,71.0241L110.52,70.9791L110.564,70.9343L110.608,70.8899L110.653,70.8453L110.697,70.8013L110.742,70.7571L110.787,70.7137L110.832,70.6699L110.878,70.6269L110.923,70.5837L110.969,70.5413L111.015,70.4989L111.061,70.4565L111.108,70.4143L111.154,70.3725L111.201,70.3311L111.248,70.2901L111.295,70.2489L111.343,70.2085L111.39,70.1681L111.438,70.1277L111.486,70.0879L111.534,70.0485L111.582,70.0089L111.631,69.9699L111.68,69.9307L111.729,69.8923L111.778,69.8543L111.827,69.8161L111.877,69.7787L111.927,69.7413L111.977,69.7039L112.027,69.6671L112.077,69.6307L112.128,69.5947L112.178,69.5585L112.229,69.5231L112.28,69.4877L112.332,69.4525L112.384,69.4179L112.435,69.3835L112.487,69.3497L112.54,69.3155L112.592,69.2825L112.645,69.2495L112.698,69.2163L112.751,69.1839L112.803,69.1519L112.857,69.1201L112.911,69.0887L112.965,69.0577L113.019,69.0269L113.073,68.9965L113.127,68.9663L113.182,68.9367L113.237,68.9073L113.292,68.8785L113.347,68.8497L113.403,68.8213L113.458,68.7937L113.514,68.7663L113.57,68.7389L113.627,68.7121L113.683,68.6857L113.74,68.6597L113.797,68.6343L113.854,68.6089L113.911,68.5841L113.969,68.5597L114.027,68.5357L114.084,68.5119L114.143,68.4889L114.201,68.4659L114.259,68.4437L114.318,68.4217L114.377,68.3999L114.436,68.3789L114.495,68.3583L114.555,68.3379L114.614,68.3181L114.674,68.2987L114.734,68.2797L114.794,68.2613L114.855,68.2433L114.915,68.2255L114.976,68.2085L115.037,68.1917L115.098,68.1757L115.159,68.1601L115.221,68.1447L115.282,68.1299L115.344,68.1157L115.406,68.1015L115.468,68.0883L115.53,68.0755L115.593,68.0631L115.655,68.0511L115.718,68.0397L115.781,68.0291L115.844,68.0187L115.907,68.0087L115.971,67.9993L116.034,67.9907L116.097,67.9823L116.161,67.9743L116.225,67.9673L116.289,67.9603L116.353,67.9541L116.417,67.9485L116.482,67.9431L116.546,67.9385L116.611,67.9345L116.675,67.9311L116.74,67.9281L116.805,67.9255L116.87,67.9237L116.935,67.9225L117,67.9215L117.066,67.9211L117.131,67.9215L117.196,67.9225L117.262,67.9237L117.327,67.9257L117.393,67.9285L117.459,67.9315L117.524,67.9351L117.59,67.9395L117.656,67.9441L117.722,67.9499L117.788,67.9559L117.854,67.9623L117.92,67.9695L117.986,67.9773L118.053,67.9853L118.119,67.9943L118.185,68.0037L118.251,68.0137L118.317,68.0243L118.383,68.0355L118.45,68.0475L118.516,68.0597L118.582,68.0725L118.649,68.0861L118.715,68.1003L118.781,68.1149L118.847,68.1303L118.914,68.1461L118.98,68.1623L119.046,68.1795L119.112,68.1971L119.178,68.2151L119.244,68.2343L119.31,68.2533L119.377,68.2733L119.442,68.2941L119.508,68.3151L119.574,68.3369L119.64,68.3589L119.706,68.3819L119.772,68.4053L119.838,68.4293L119.903,68.4537L119.969,68.4789L120.035,68.5045L120.1,68.5309L120.166,68.5581L120.231,68.5855L120.296,68.6135L120.362,68.6419L120.427,68.6713L120.492,68.7011L120.557,68.7315L120.622,68.7623L120.687,68.7937L120.752,68.8257L120.817,68.8585L120.882,68.8915L120.946,68.9253L121.011,68.9597L121.075,68.9947L121.14,69.0303L121.204,69.0663L121.268,69.1027L121.332,69.1399L121.396,69.1779L121.461,69.2161L121.524,69.2551L121.588,69.2945L121.652,69.3343L121.716,69.3751L121.779,69.4161L121.843,69.4579L121.906,69.5001L121.969,69.5429L122.033,69.5863L122.096,69.6303L122.159,69.6749L122.222,69.7199L122.285,69.7653L122.348,69.8119L122.41,69.8587L122.473,69.9057L122.536,69.9539L122.598,70.0023L122.661,70.0515L122.723,70.1009L122.785,70.1511L122.847,70.2017L122.909,70.2529L122.971,70.3047L123.033,70.3575L123.095,70.4103L123.157,70.4637L123.218,70.5179L123.28,70.5727L123.341,70.6279L123.403,70.6837L123.464,70.7401L123.525,70.7973L123.586,70.8547L123.647,70.9129L123.708,70.9713L123.77,71.0309L123.83,71.0907L123.891,71.1509L123.952,71.2119L124.012,71.2735L124.073,71.3357L124.134,71.3985L124.194,71.4617L124.254,71.5255L124.314,71.5899L124.374,71.6551L124.434,71.7205L124.494,71.7867L124.554,71.8535L124.615,71.9211L124.674,71.9889L124.734,72.0575L124.794,72.1265L124.853,72.1965L124.913,72.2667L124.972,72.3377L125.031,72.4093L125.091,72.4815L125.15,72.5539L125.209,72.6271L125.327,72.7755L125.386,72.8507L125.445,72.9265L125.504,73.0027L125.563,73.0797L125.622,73.1571L125.68,73.2353L125.739,73.3143L125.797,73.3935L125.856,73.4737L125.914,73.5541L125.972,73.6353L126.031,73.7173L126.089,73.7997L126.147,73.8827L126.192,73.9471L126.236,74.0119L126.281,74.0771L126.324,74.1419L126.368,74.2071L126.411,74.2723L126.454,74.3375L126.497,74.4029L126.54,74.4685L126.582,74.5339L126.665,74.6655L126.706,74.7317L126.747,74.7975L126.788,74.8637L126.828,74.9303L126.869,74.9965L126.909,75.0629L126.948,75.1293L126.987,75.1963L127.026,75.2631L127.065,75.3299L127.103,75.3967L127.179,75.5311L127.216,75.5983L127.254,75.6657L127.268,75.6931L127.279,75.6511L127.326,75.4659L127.372,75.2791L127.418,75.0903L127.464,74.8999L127.51,74.7073L127.555,74.5129L127.601,74.3171L127.646,74.1189L127.691,73.9191L127.735,73.7173L127.78,73.5133L127.824,73.3079L127.867,73.1003L127.911,72.8909L127.955,72.6793L127.998,72.4657L128.041,72.2503L128.084,72.0331L128.126,71.8135L128.169,71.5919L128.211,71.3683L128.253,71.1429L128.295,70.9153L128.336,70.6857L128.377,70.4537L128.418,70.2199L128.459,69.9839L128.5,69.7459L128.541,69.5057L128.581,69.2635L128.621,69.0189L128.661,68.7723L128.701,68.5233L128.74,68.2723L128.78,68.0191L128.819,67.7637L128.858,67.5061L128.897,67.2461L128.936,66.9841L128.974,66.7195L129.012,66.4527L129.051,66.1841L129.089,65.9127L129.126,65.6391L129.164,65.3635L129.202,65.0851L129.239,64.8043L129.276,64.5217L129.313,64.2363L129.35,63.9485L129.386,63.6585L129.423,63.3661L129.459,63.0713L129.496,62.7739L129.532,62.4743L129.568,62.1709L129.598,61.9927L129.647,61.8185L129.713,61.6505L129.797,61.4895L129.896,61.3377L130.011,61.1967L130.139,61.0681L130.28,60.9525L130.431,60.8515L130.593,60.7663L130.763,60.6979L130.938,60.6463L131.118,60.6129L131.301,60.5973L131.484,60.6003L131.666,60.6213L131.845,60.6603L132.019,60.7169L132.187,60.7907L132.345,60.8805L132.494,60.9861L132.631,61.1059L132.755,61.2385L132.865,61.3831L132.96,61.5375L133.038,61.7009L133.099,61.8713L133.142,62.0469L133.167,62.2257L133.174,62.4061L133.161,62.5861L133.125,62.8919L133.088,63.1967L133.051,63.4991L133.015,63.7991L132.977,64.0969L132.94,64.3923L132.902,64.6853L132.865,64.9765L132.827,65.2649L132.789,65.5513L132.75,65.8353L132.712,66.1169L132.673,66.3967L132.634,66.6741L132.595,66.9493L132.556,67.2223L132.517,67.4933L132.477,67.7621L132.437,68.0287L132.397,68.2931L132.357,68.5557L132.316,68.8161L132.275,69.0739L132.235,69.3303L132.193,69.5843L132.152,69.8363L132.111,70.0865L132.068,70.3345L132.026,70.5805L131.984,70.8243L131.942,71.0663L131.899,71.3065L131.856,71.5445L131.812,71.7807L131.769,72.0153L131.725,72.2475L131.681,72.4781L131.637,72.7067L131.592,72.9335L131.547,73.1585L131.502,73.3813L131.457,73.6025L131.411,73.8221L131.365,74.0397L131.319,74.2555L131.272,74.4697L131.225,74.6819L131.178,74.8929L131.13,75.1017L131.082,75.3089L131.034,75.5143L130.986,75.7179L130.937,75.9201L130.888,76.1205L130.839,76.3193L130.789,76.5165L130.739,76.7121L130.689,76.9061L130.638,77.0983L130.587,77.2891L130.535,77.4783L130.483,77.6661L130.431,77.8521L130.379,78.0367L130.326,78.2197L130.273,78.4013L130.219,78.5813L130.165,78.7597L130.111,78.9373L130.056,79.1127L130.001,79.2871L129.946,79.4599L129.89,79.6313L129.833,79.8013L129.777,79.9697L129.72,80.1373L129.663,80.3029L129.605,80.4677L129.546,80.6307L129.487,80.7925L129.428,80.9533L129.369,81.1123L129.309,81.2703L129.308,81.2727L129.327,81.3649L129.356,81.5099L129.384,81.6553L129.41,81.8011L129.436,81.9463L129.461,82.0921L129.485,82.2377L129.508,82.3837L129.529,82.5299L129.55,82.6759L129.57,82.8219L129.589,82.9683L129.606,83.1147L129.623,83.2609L129.639,83.4077L129.654,83.5541L129.668,83.7007L129.681,83.8475L129.693,83.9945L129.704,84.1411L129.714,84.2883L129.723,84.4349L129.731,84.5819L129.739,84.7289L129.745,84.8761L129.75,85.0231L129.755,85.1701L129.759,85.3171L129.761,85.4641L129.763,85.6115L129.764,85.7585L129.764,85.9055L129.763,86.0525L129.761,86.1997L129.758,86.3467L129.754,86.4937L129.75,86.6411L129.745,86.7877L129.738,86.9347L129.731,87.0819L129.723,87.2289L129.714,87.3755L129.704,87.5223L129.694,87.6693L129.682,87.8159L129.67,87.9623L129.657,88.1091L129.643,88.2557L129.628,88.4021L129.612,88.5485L129.596,88.6945L129.578,88.8409L129.56,88.9869L129.541,89.1329L129.522,89.2789L129.501,89.4247L129.48,89.5703L129.458,89.7161L129.435,89.8615L129.411,90.0067L129.386,90.1521L129.361,90.2971L129.335,90.4421L129.308,90.5873L129.28,90.7319L129.252,90.8763L129.222,91.0209L129.192,91.1649L129.162,91.3093L129.13,91.4533L129.098,91.5971L129.065,91.7407L129.031,91.8841L128.997,92.0275L128.961,92.1709L128.925,92.3139L128.888,92.4565L128.851,92.5993L128.813,92.7415L128.774,92.8837L128.734,93.0257L128.694,93.1677L128.653,93.3093L128.611,93.4507L128.569,93.5917L128.526,93.7327L128.482,93.8735L128.437,94.0141L128.392,94.1545L128.346,94.2945L128.3,94.4341L128.252,94.5739L128.204,94.7131L128.155,94.8525L128.106,94.9911L128.056,95.1299L128.006,95.2683L127.954,95.4063L127.902,95.5443L127.85,95.6815L127.797,95.8189L127.743,95.9559L127.688,96.0925L127.633,96.2289L127.577,96.3653L127.52,96.5013L127.463,96.6367L127.406,96.7719L127.347,96.9069L127.288,97.0417L127.229,97.1759L127.169,97.3099L127.108,97.4437L127.046,97.5769L126.985,97.7099L126.922,97.8427L126.858,97.9753L126.795,98.1073L126.73,98.2389L126.665,98.3703L126.6,98.5013L126.533,98.6319L126.467,98.7623L126.399,98.8923L126.332,99.0219L126.263,99.1509L126.194,99.2799L126.124,99.4081L126.054,99.5361L125.983,99.6641L125.912,99.7915L125.84,99.9181L125.768,100.045L125.695,100.171L125.621,100.297L125.547,100.422L125.473,100.547L125.397,100.671L125.322,100.795L125.246,100.919L125.169,101.042L125.092,101.165L125.014,101.288L124.936,101.409L124.857,101.531L124.778,101.652L124.698,101.773L124.618,101.892L124.537,102.012L124.455,102.131L124.374,102.25L124.291,102.369L124.208,102.486L124.125,102.604L124.041,102.721L123.957,102.837L123.872,102.953L123.787,103.068L123.701,103.183L123.615,103.297L123.528,103.411L123.441,103.525L123.354,103.637L123.266,103.75L123.177,103.862L123.088,103.973L122.999,104.084L122.909,104.194L122.818,104.303L122.728,104.413L122.637,104.521L122.545,104.63L122.453,104.737L122.36,104.844L122.267,104.95L122.174,105.056L122.08,105.162L121.986,105.266L121.891,105.37L121.796,105.474L121.7,105.577L121.604,105.679L121.508,105.781L121.411,105.882L121.314,105.983L121.216,106.083L121.118,106.182L121.02,106.281L120.921,106.379L120.822,106.476L120.722,106.573L120.622,106.669L120.522,106.765L120.421,106.86L120.32,106.954L120.218,107.048L120.116,107.141L120.014,107.233L119.911,107.325L119.808,107.416L119.704,107.506L119.6,107.596L119.496,107.685L119.392,107.773L119.287,107.861L119.181,107.948L119.076,108.034L118.97,108.12L118.863,108.205L118.756,108.289L118.65,108.372L118.542,108.455L118.434,108.537L118.326,108.618L118.218,108.698L118.109,108.778L118,108.857L117.89,108.935L117.78,109.013L117.67,109.09L117.56,109.166L117.449,109.241L117.338,109.315L117.226,109.389L117.114,109.462L117.002,109.534L116.89,109.605L116.777,109.676L116.664,109.745L116.551,109.815L116.437,109.882L116.323,109.95L116.208,110.016L116.094,110.082L115.979,110.146L115.864,110.211L115.748,110.274L115.632,110.336L115.516,110.397L115.4,110.457L115.283,110.517L115.166,110.576L115.049,110.634L114.931,110.691L114.813,110.747L114.695,110.802L114.577,110.856L114.458,110.91L114.339,110.962L114.22,111.014L114.101,111.065L113.981,111.114L113.861,111.163L113.74,111.211L113.62,111.258L113.499,111.304L113.378,111.349L113.257,111.392L113.135,111.436L113.013,111.477L112.891,111.518L112.769,111.559L112.647,111.598L112.524,111.635L112.401,111.672L112.278,111.709L112.155,111.743L112.031,111.777L111.907,111.81L111.783,111.842L111.659,111.873L111.534,111.902L111.41,111.931L111.285,111.958L111.16,111.985L111.035,112.01L110.909,112.034L110.784,112.057L110.658,112.08L110.532,112.101L110.406,112.12L110.282,112.139L110.216,112.148L110.153,112.156L110.09,112.165L110.026,112.173L109.963,112.18L109.9,112.188L109.836,112.195L109.773,112.202L109.71,112.208L109.646,112.214L109.583,112.221L109.519,112.226L109.456,112.232L109.392,112.237L109.328,112.242L109.265,112.246L109.201,112.25L109.137,112.254L109.073,112.258L109.01,112.261L108.946,112.264L108.882,112.267L108.818,112.269L108.754,112.271L108.69,112.273L108.626,112.274L108.562,112.276L108.498,112.276L108.435,112.277L108.37,112.277Z" style="fill:rgb(218,205,229);fill-rule:nonzero;"/>
        <path d="M49.6506,39.8012C49.6506,39.8012 51.0492,107.101 54.4412,119.688C54.58,120.202 68.5248,122.121 68.8856,114.564C68.6306,103.57 77.721,93.7186 81.0284,114.564C81.168,115.443 81.5556,116.334 82.1536,117.001C83.8386,118.881 87.9284,121.826 96.05,119.688C96.05,119.688 100.247,68.4796 100.161,39.8012C100.161,39.8012 92.764,25.35 75.13,25.4984C75.13,25.4984 59.6364,23.7546 49.6506,38.9326L49.6506,39.8012Z" style="fill:rgb(131,112,179);fill-rule:nonzero;"/>
        <path d="M48.9024,22.2549C51.5014,21.4151 56.0064,32.5923 56.0064,32.5923C56.0064,32.5923 58.3742,41.6043 49.6918,39.7489L48.9024,22.2549Z" style="fill:rgb(218,205,229);fill-rule:nonzero;"/>
        <path d="M56.344,68.8579C54.7914,70.0273 53.0878,72.5391 52.5308,74.5063C54.1724,78.7711 55.3356,84.4819 57.8728,89.5777C59.7198,91.9783 63.1756,91.0415 62.7098,89.0905C61.5998,84.4411 56.6836,66.5297 56.344,68.8579" style="fill:rgb(218,205,229);fill-rule:nonzero;"/>
        <path d="M61.5258,43.0769C64.5232,43.0769 66.953,45.4707 66.953,48.4235C66.953,51.3765 64.5232,53.7701 61.5258,53.7701C58.5284,53.7701 56.0986,51.3765 56.0986,48.4235C56.0986,45.4707 58.5284,43.0769 61.5258,43.0769" style="fill:white;fill-rule:nonzero;"/>
        <path d="M87.3052,43.0769C90.3026,43.0769 92.7324,45.4707 92.7324,48.4235C92.7324,51.3765 90.3026,53.7701 87.3052,53.7701C84.3078,53.7701 81.878,51.3765 81.878,48.4235C81.878,45.4707 84.3078,43.0769 87.3052,43.0769" style="fill:white;fill-rule:nonzero;"/>
        <path d="M57.419,62.3821C57.419,62.3821 63.1532,65.2723 65.2956,65.2743C75.7544,65.2843 81.2598,57.4681 88.212,58.0091C92.8276,58.3681 95.971,63.8135 95.971,63.8135" style="fill:none;stroke-width:0.6px;stroke:rgb(55,54,54);"/>
        <path d="M82.657,59.7018L87.9728,67.3578L91.5384,59.6836C87.6366,56.6916 82.657,59.7018 82.657,59.7018" style="fill:white;"/>
        <path d="M60.7511,43.0769C59.4675,43.0769 58.4271,44.1039 58.4271,45.3707C58.4271,46.6375 59.4675,47.6643 60.7511,47.6643C62.0347,47.6643 63.0751,46.6375 63.0751,45.3707C63.0751,44.1039 62.0347,43.0769 60.7511,43.0769" style="fill:white;"/>
        <path d="M129.851,47.6644L124.249,66.4762C124.249,66.4762 129.375,61.9722 131.532,61.9158C133.299,61.8694 137.694,65.336 137.694,65.336L129.851,47.6644Z" style="fill:rgb(131,112,179);"/>
        <path d="M100.991,22.2549L100.202,39.7489C91.5194,41.6043 93.8872,32.5923 93.8872,32.5923C93.8872,32.5923 98.3922,21.4151 100.991,22.2549" style="fill:rgb(218,205,229);fill-rule:nonzero;"/>
        <path d="M64.0258,48.4236C64.0258,49.832 62.9066,50.9736 61.5258,50.9736C60.145,50.9736 59.0258,49.832 59.0258,48.4236C59.0258,47.0152 60.145,45.8736 61.5258,45.8736C62.9066,45.8736 64.0258,47.0152 64.0258,48.4236" style="fill:rgb(3,5,5);"/>
        <path d="M61.5258,47.1861C61.5258,47.7561 61.099,48.2181 60.5726,48.2181C60.0462,48.2181 59.6194,47.7561 59.6194,47.1861C59.6194,46.6161 60.0462,46.1541 60.5726,46.1541C61.099,46.1541 61.5258,46.6161 61.5258,47.1861" style="fill:white;"/>
        <path d="M89.8052,48.4236C89.8052,49.832 88.686,50.9736 87.3052,50.9736C85.9244,50.9736 84.8052,49.832 84.8052,48.4236C84.8052,47.0152 85.9244,45.8736 87.3052,45.8736C88.686,45.8736 89.8052,47.0152 89.8052,48.4236" style="fill:rgb(3,5,5);"/>
        <path d="M87.3052,47.1861C87.3052,47.7561 86.8784,48.2181 86.352,48.2181C85.8256,48.2181 85.3988,47.7561 85.3988,47.1861C85.3988,46.6161 85.8256,46.1541 86.352,46.1541C86.8784,46.1541 87.3052,46.6161 87.3052,47.1861" style="fill:white;"/>
        <path d="M87.6643,89.0905C87.1985,91.0413 90.6543,91.9783 92.5013,89.5775C95.0387,84.4819 96.2017,78.7711 97.8433,74.5063C97.2863,72.5389 95.5827,70.0273 94.0301,68.8579C93.6905,66.5297 88.7743,84.4409 87.6643,89.0905" style="fill:rgb(218,205,229);fill-rule:nonzero;"/>
    </g>
</svg>
